<?xml version="1.0" encoding="utf-8"?>
<!-- Generator: Adobe Illustrator 19.2.1, SVG Export Plug-In . SVG Version: 6.00 Build 0)  -->
<svg version="1.1" id="layer" xmlns="http://www.w3.org/2000/svg" xmlns:xlink="http://www.w3.org/1999/xlink" x="0px" y="0px"
	 viewBox="0 0 652 652" style="enable-background:new 0 0 652 652;" xml:space="preserve">
<style type="text/css">
	.st0{fill:#F5C910;}
	.st1{fill:#2C110A;}
</style>
<g>
	<path class="st0" d="M611.5,276.9v-2.3h-42.1l0,0c-0.8,0.4-1.5,0.4-2.3,0.8c-0.8,0.4-1.5,0.8-1.9,1.5l-4.3,4.3l0,0l0,0l0,0l0,0
		l-4.3-4.3c-0.4-0.4-1.2-1.2-1.9-1.5c-0.8-0.4-1.5-0.8-2.3-0.8h-0.4h-34.4h-0.4c-0.8,0.4-1.5,0.4-2.3,0.8c-0.8,0.4-1.5,0.8-1.9,1.5
		l-4.3,4.3l0,0l0,0l0,0l0,0l-4.3-4.3c-0.4-0.4-1.2-1.2-1.9-1.5c-0.8-0.4-1.5-0.8-2.3-0.8h-0.4h-86.6c-1.2,0-2.3,0.4-3.1,0.8
		c-1.2,0.4-1.9,1.2-2.7,1.9l-4.3,4.3l0,0l0,0l0,0l-4.3-4.3l0,0c-0.8-0.8-1.9-1.5-2.7-1.9c-2.3-0.4-3.1-0.8-4.3-0.8h-33.6H358
		c-0.8,0.4-1.5,0.4-2.3,0.8c-0.8,0.4-1.5,0.8-1.9,1.5l-4.3,4.3l0,0l0,0l0,0l0,0l-4.3-4.3l0,0c-0.4-0.4-1.2-1.2-1.9-1.5
		c-1.2-0.4-1.9-0.4-2.7-0.8h-0.4h-65.7c-3.5,0-6.6,1.5-8.9,3.9s-3.9,5.8-3.9,8.9v20.1l0,0v11.2l0,0l0,0l0,0l0.8,2.3v-2.3h-13.9
		c-1.2,0-2.7,0.4-3.9,0.8l0.8,2.3h2.3v-28.6c0-1.2-0.4-2.3-0.8-3.1c-0.4-1.2-1.2-1.9-1.9-2.7l-9.7-9.7c-0.8-0.8-1.9-1.5-2.7-1.9
		c-1.2-0.4-2.3-0.8-3.1-0.8h-31.3c-1.2,0-2.3,0.4-3.1,0.8c-1.2,0.4-1.9,1.2-2.7,1.9l-4.3,4.3l0,0l0,0l0,0l-4.3-4.3l0,0
		c-0.8-0.8-1.9-1.5-2.7-1.9c-1.2-0.4-2.3-0.8-3.1-0.8H33.4c-7,0-12.8,5.8-12.8,12.8v66.8c0,3.5,1.5,6.6,3.9,8.9s5.4,3.9,8.9,3.9
		h41.7h0.4c0.8,0,1.5-0.4,2.3-0.8c0.8-0.4,1.5-0.8,2.3-1.5l4.3-4.3l0,0l0,0l0,0l0,0l4.3,4.3c0.8,0.8,1.5,1.2,2.3,1.5
		c0.8,0.4,1.5,0.8,2.3,0.8h0.4h28.2h0.4c0.8,0,1.5-0.4,2.3-0.8c0.8-0.4,1.5-0.8,2.3-1.5l4.3-4.3l0,0l0,0l0,0l4.3,4.3l0,0
		c0.8,0.8,1.5,1.2,2.3,1.5c0.8,0.4,1.5,0.8,2.3,0.8h0.4h36.7c1.2,0,2.3-0.4,3.1-0.8c1.2-0.4,1.9-1.2,2.7-1.9l0,0l4.3-4.3l0,0l0,0
		l0,0l0,0l4.3,4.3l0,0c0.8,0.8,1.9,1.5,2.7,1.9c1.2,0.4,1.9,0.8,3.1,0.8h31.3c1.2,0,2.3-0.4,3.1-0.8c1.2-0.4,1.9-1.2,2.7-1.9
		l6.2-6.6l5.8,6.2c0.8,0.8,1.9,1.5,2.7,1.9c1.2,0.4,1.9,0.8,3.1,0.8h30.1c1.2,0,2.3-0.4,3.1-0.8c1.2-0.4,1.9-1.2,2.7-1.9l2.3-2.3
		l0,0l0,0l0,0l2.3,2.3c0.8,0.8,1.9,1.5,2.7,1.9c1.2,0.4,1.9,0.8,3.1,0.8h43.3c1.2,0,2.3-0.4,3.1-0.8c1.2-0.4,1.9-1.2,2.7-1.9
		l2.3-2.3l0,0l0,0l2.3,2.3c0.8,0.8,1.9,1.5,2.7,1.9c1.2,0.4,1.9,0.8,3.1,0.8h30.1c1.2,0,2.3-0.4,3.1-0.8c1.2-0.4,1.9-1.2,2.7-1.9
		l2.3-2.3l0,0l0,0l2.3,2.3l0,0c0.8,0.8,1.9,1.5,2.7,1.9c1.2,0.4,1.9,0.8,3.1,0.8h77.3c1.5,0,2.7-0.4,3.5-1.5
		c0.8-0.8,1.5-2.3,1.5-3.5v-21.3l0,0l0,0h13.1l0,0l0,0V362c0,1.5,0.4,2.7,1.5,3.5c0.8,0.8,2.3,1.5,3.5,1.5h43.7
		c1.2,0,2.3-0.4,3.1-0.8c1.2-0.4,1.9-1.2,2.7-1.9l13.9-14.3l0,0v-0.4v0.4l0,0v-0.4v0.4l-0.8-1.2v1.2c0.4,0,0.8,0,0.8,0l-0.8-1.2v1.2
		V348l-0.8,1.5c0.4,0,0.8,0.4,0.8,0.4V348l-0.8,1.5l0.8-1.5l-1.5,1.2l0.4,0.4l0.8-1.5l-1.5,1.2l0.8-0.8l-1.2,0.4c0,0,0,0.4,0.4,0.4
		l0.8-0.8l-1.2,0.4h0.4h-0.4l0,0h0.4h-0.4l0,0l0,0l0,0l0,0l0,0l0,0v12.8c0,1.5,0.4,2.7,1.5,3.5c0.8,0.8,2.3,1.5,3.5,1.5h30.5
		c1.5,0,2.7-0.4,3.5-1.5c0.8-0.8,1.5-2.3,1.5-3.5v-54.1l0,0l0,0h7.7c2.7,0,5-2.3,5-5v-7.7h-2.3v2.3h2.3v-9.7c0-3.5-1.2-6.6-3.9-8.9
		c-2.3-2.3-5.4-3.9-8.9-3.9v4.6c2.3,0,4.3,0.8,5.4,2.3c1.5,1.5,2.3,3.5,2.3,5.4l0,0v7.7h2.3v-1.9h3.9v10l0,0l0,0h-7.7
		c-1.5,0-2.7,0.4-3.5,1.5c-0.8,0.8-1.5,2.3-1.5,3.5V362l0,0l0,0h-30.5l0,0l0,0v-12.8c0-0.4,0-0.8,0-1.2c0-0.8-0.4-1.2-0.8-1.5
		c-0.4-0.8-1.2-0.8-2.3-0.8c-0.4,0-1.2,0-1.5,0.4c-0.4,0.4-0.8,0.4-1.2,0.8l-13.9,14.3c-0.4,0.4-0.8,0.8-1.2,0.8
		c-0.4,0.4-0.8,0.4-1.5,0.4h-43.7l0,0l0,0v-21.3c0-2.7-2.3-5-5-5h-13.1c-2.7,0-5,2.3-5,5v21.3l0,0l0,0h-77.3c-0.4,0-1.2,0-1.5-0.4
		c-0.4,0-0.8-0.4-1.2-0.8l0,0l-2.3-2.3c-1.9-1.9-5-1.9-7,0l0,0l-2.3,2.3l0,0c0,0-0.8,0.4-1.2,0.8c-0.4,0.4-0.8,0.4-1.5,0.4h-30.1
		c-0.4,0-1.2,0-1.5-0.4c-0.4,0-0.8-0.4-1.2-0.8l-2.3-2.3c-1.9-1.9-5-1.9-7,0l0,0l-2.3,2.3l0,0c-0.4,0.4-0.8,0.8-1.2,0.8
		c-0.4,0.4-0.8,0.4-1.5,0.4h-44.4c-0.4,0-1.2,0-1.5-0.4c-0.4,0-0.8-0.4-1.2-0.8l-2.3-2.3l0,0c-1.9-1.9-5-1.9-7,0l0,0l-2.3,2.3
		c0,0-0.8,0.4-1.2,0.8c-0.4,0.4-0.8,0.4-1.5,0.4H254c-0.4,0-1.2,0-1.5-0.4c-0.4,0-0.8-0.4-1.2-0.8l-9.3-9.3l-9.7,9.7
		c0,0-0.8,0.4-1.2,0.8c-0.4,0.4-0.8,0.4-1.5,0.4h-31.3c-0.4,0-1.2,0-1.5-0.4c-0.4,0-0.8-0.4-1.2-0.8l-4.3-4.3l0,0
		c-1.9-1.9-5-1.9-7,0l-4.3,4.3l0,0c0,0-0.8,0.4-1.2,0.8c-0.4,0.4-0.8,0.4-1.5,0.4h-36.3v2.3l0.4-2.3c-0.4,0-0.8-0.4-1.2-0.4
		s-0.8-0.4-0.8-0.8l0,0l-4.3-4.3l0,0c-1.9-1.9-5-1.9-7,0l0,0l-4.3,4.3c-0.4,0.4-0.4,0.4-0.8,0.8c-0.4,0.4-0.8,0.4-1.2,0.4l0.4,2.3
		v-2.3H94.1v2.3l0.4-2.3c-0.4,0-0.8-0.4-1.2-0.4c-0.4,0-0.8-0.4-0.8-0.8l0,0l-4.3-4.3l0,0c-1.9-1.9-5-1.9-7,0l0,0l0,0l-4.3,4.3
		c-0.4,0.4-0.4,0.4-0.8,0.8c-0.4,0.4-0.8,0.4-1.2,0.4l0.4,2.3v-2.3H33.4c-2.3,0-4.3-0.8-5.4-2.3c-1.5-1.5-2.3-3.5-2.3-5.4v-67.2
		c0-2.3,0.8-4.3,2.3-5.4c1.5-1.5,3.5-2.3,5.4-2.3h144.1c0.4,0,1.2,0,1.5,0.4c0.4,0.4,1.2,0.4,1.2,0.8l0,0l4.3,4.3l0,0
		c1.9,1.9,5,1.9,7,0l0,0l4.3-4.3c0.4-0.4,0.8-0.8,1.2-0.8c0.4-0.4,0.8-0.4,1.5-0.4h31.3c0.4,0,1.2,0,1.5,0.4
		c0.4,0.4,1.2,0.8,1.2,0.8l9.7,9.7l0,0c0,0,0.4,0.8,0.8,1.2c0.4,0.4,0.4,1.2,0.4,1.5v31.3l3.1-1.2c0.8-0.4,1.5-0.4,2.3-0.4h14.7h0.4
		c1.9-0.8,3.5-2.7,3.5-4.6l0,0v-16.2l0,0v-15.1c0-2.3,0.8-4.3,2.3-5.4c1.5-1.5,3.5-2.3,5.4-2.3h65.3v-2.7l-0.8,2.3
		c0.4,0,0.8,0.4,1.2,0.4c0.4,0,0.4,0.4,0.8,0.4l4.3,4.3l0,0c1.9,1.9,5,1.9,7,0l0,0l4.3-4.3l0,0c0.4-0.4,0.4-0.4,0.8-0.4
		c0.4-0.4,0.8-0.4,1.2-0.4l-0.8-2.3v2.3h33.2c0.4,0,0.8,0,1.5,0.4c0.4,0.4,1.2,0.8,1.2,0.8l0,0l4.3,4.3c1.9,1.9,5,1.9,7,0l0,0l0,0
		l4.3-4.3l0,0c0,0,0.8-0.4,1.2-0.8c0.4-0.4,0.8-0.4,1.5-0.4h86.6v-2.3l-0.8,2.3c0.4,0,0.8,0.4,1.2,0.4c0.4,0,0.4,0.4,0.8,0.4
		l4.3,4.3l0,0c1.9,1.9,5,1.9,7,0l0,0l4.3-4.3l0,0c0.4-0.4,0.4-0.4,0.8-0.4c0.4-0.4,0.8-0.4,1.2-0.4l-0.8-2.3v2.3h34v-2.3l-0.8,2.3
		c0.4,0,0.8,0.4,1.2,0.4s0.4,0.4,0.8,0.4l4.3,4.3l0,0c1.9,1.9,5,1.9,7,0l0,0l0,0l4.3-4.3c0.4-0.4,0.4-0.4,0.8-0.4
		c0.4-0.4,0.8-0.4,1.2-0.4l-0.8-2.3v2.3h41.7L611.5,276.9L611.5,276.9z"/>
	<path class="st1" d="M611.5,276.9h-41.7c-1.2,0.4-2.3,0.8-3.1,1.5l-4.3,4.3c-1.2,1.2-2.7,1.2-3.5,0l0,0l-4.3-4.3
		c-0.8-0.8-1.9-1.2-3.1-1.5h-34c-1.2,0.4-2.3,0.8-3.1,1.5l-4.3,4.3c-1.2,1.2-2.7,1.2-3.5,0l0,0l-4.3-4.3c-0.8-0.8-1.9-1.2-3.1-1.5
		h-86.6c-1.5,0-3.5,0.8-4.3,1.9l-4.3,4.3c-1.2,1.2-2.7,1.2-3.5,0l-4.3-4.3c-1.2-1.2-3.1-1.9-4.3-1.9h-33.2c-1.2,0.4-2.3,0.8-3.1,1.5
		l-4.3,4.3c-1.2,1.2-2.7,1.2-3.5,0l0,0l-5-4.3c-0.8-0.8-1.9-1.2-3.1-1.5h-65.3c-5.8,0-10.4,4.6-10.4,10.4v17.4l0,0v13.5
		c0,1.2-0.8,1.9-1.9,2.3h-13.9c-1.2,0-1.9,0-3.1,0.4v-27.8c0-1.5-0.8-3.5-1.9-4.3l-9.7-9.7c-1.2-1.2-3.1-1.9-4.3-1.9h-31.3
		c-1.5,0-3.5,0.8-4.3,1.9l-4.3,4.3c-1.2,1.2-2.7,1.2-3.5,0l0,0l-4.3-4.3c-1.2-1.2-3.1-1.9-4.3-1.9H33.4c-5.8,0-10.4,4.6-10.4,10.4
		v66.8c0,5.8,4.6,10.4,10.4,10.4h41.3c1.2-0.4,2.7-0.8,3.5-1.5l4.3-4.3c1.2-1.2,2.7-1.2,3.5,0l0,0l4.3,4.3c0.8,0.8,2.3,1.5,3.5,1.5
		h27.8c1.2-0.4,2.7-0.8,3.5-1.5l4.3-4.3c1.2-1.2,2.7-1.2,3.5,0l0,0l4.3,4.3c0.8,0.8,2.3,1.5,3.5,1.5h36.3c1.5,0,3.5-0.8,4.3-1.9
		l4.3-4.3c1.2-1.2,2.7-1.2,3.5,0l0,0l4.3,4.3c1.2,1.2,3.1,1.9,4.3,1.9h31.3c1.5,0,3.5-0.8,4.3-1.9l8.1-8.1l7.7,7.7
		c1.2,1.2,3.1,1.9,4.3,1.9H283c1.5,0,3.5-0.8,4.3-1.9l2.3-2.3c1.2-1.2,2.7-1.2,3.5,0l0,0l2.3,2.3c1.2,1.2,3.1,1.9,4.3,1.9h43.3
		c1.5,0,3.5-0.8,4.3-1.9l2.3-2.3c1.2-1.2,2.7-1.2,3.5,0l2.3,2.3c1.2,1.2,3.1,1.9,4.3,1.9h30.1c1.5,0,3.5-0.8,4.3-1.9l2.3-2.3
		c1.2-1.2,2.7-1.2,3.5,0l2.3,2.3c1.2,1.2,3.1,1.9,4.3,1.9h77.3c1.5,0,2.7-1.2,2.7-2.7v-21.3c0-1.5,1.2-2.7,2.7-2.7h13.1
		c1.5,0,2.7,1.2,2.7,2.7V362c0,1.5,1.2,2.7,2.7,2.7h43.7c1.5,0,3.5-0.8,4.3-1.9l13.9-14.3c1.2-1.2,1.9-0.8,1.9,0.8V362
		c0,1.5,1.2,2.7,2.7,2.7h30.5c1.5,0,2.7-1.2,2.7-2.7v-54.1c0-1.5,1.2-2.7,2.7-2.7h7.7c1.5,0,2.7-1.2,2.7-2.7V287
		C621.9,281.6,617.2,276.9,611.5,276.9"/>
	<path class="st0" d="M67,344.2c-2.3,0-3.1,1.2-3.1,3.1c0,2.3,1.2,3.1,3.1,3.1s3.1-1.2,3.1-3.1C70.1,345.3,68.9,344.2,67,344.2
		 M40.7,291.2c-2.3,0-3.1,1.2-3.1,3.1c0,2.3,0.8,3.5,3.1,3.5c1.9,0,3.1-1.2,3.1-3.1C43.8,292.4,42.7,291.2,40.7,291.2 M47.3,291.2
		c-2.3,0-3.1,1.2-3.1,3.1c0,2.3,0.8,3.5,3.1,3.5l0,0c1.9,0,3.1-1.2,3.1-3.1l0,0l0,0C50.4,292.4,49.2,291.2,47.3,291.2 M53.9,291.2
		c-2.3,0-3.1,1.2-3.1,3.5l0,0c0,1.9,0.8,3.1,3.1,3.1l0,0c1.9,0,3.1-1.2,3.1-3.1l0,0C57,292.4,55.8,291.2,53.9,291.2 M60.4,291.2
		c-2.3,0-3.1,1.2-3.1,3.1l0,0c0,2.3,0.8,3.5,3.1,3.5l0,0c1.9,0,3.1-1.2,3.1-3.1l0,0C63.5,292.4,62.4,291.2,60.4,291.2 M67,297.8
		L67,297.8c2.3,0,3.1-1.2,3.1-3.1c0-2.3-1.2-3.1-3.1-3.1c-2.3,0-3.1,1.2-3.1,3.1l0,0C63.9,296.7,64.7,297.8,67,297.8 M63.9,321
		c0,2.3,1.2,3.1,3.1,3.1s3.1-1.2,3.1-3.1c0-2.3-1.2-3.1-3.1-3.1C64.7,317.9,63.9,318.7,63.9,321 M60.4,324.1c2.3,0,3.1-1.2,3.1-3.1
		c0-1.9-1.2-3.1-3.1-3.1c-2.3,0-3.1,1.2-3.1,3.1l0,0C57.3,323.3,58.1,324.1,60.4,324.1 M53.9,344.2c-2.3,0-3.1,1.2-3.1,3.1l0,0
		c0,2.3,1.2,3.1,3.1,3.1s3.1-1.2,3.1-3.1l0,0C57,345.3,55.8,344.2,53.9,344.2 M47.3,344.2c-2.3,0-3.1,1.2-3.1,3.1l0,0
		c0,2.3,1.2,3.1,3.1,3.1s3.1-1.2,3.1-3.1l0,0C50.4,345.3,49.2,344.2,47.3,344.2 M40.7,344.2c-2.3,0-3.1,1.2-3.1,3.1
		c0,2.3,1.2,3.1,3.1,3.1c2.3,0,3.1-1.2,3.1-3.1l0,0C43.8,345.3,42.7,344.2,40.7,344.2 M40.7,324.5c-2.3,0-3.1,1.2-3.1,3.1
		c0,2.3,1.2,3.1,3.1,3.1s3.1-1.2,3.1-3.1l0,0C43.8,325.6,42.7,324.5,40.7,324.5 M40.7,337.2c1.9,0,3.1-0.8,3.1-3.1l0,0
		c0-1.9-1.2-3.1-3.1-3.1c-2.3,0-3.1,1.2-3.1,3.1C37.6,336.5,38.4,337.2,40.7,337.2 M40.7,344.2c1.9,0,3.1-1.2,3.1-3.5l0,0
		c0-1.9-1.2-3.1-3.1-3.1c-2.3,0-3.1,1.2-3.1,3.1C37.6,343,38.4,344.2,40.7,344.2 M40.7,317.9c-2.3,0-3.1,1.2-3.1,3.1
		c0,1.9,1.2,3.1,3.1,3.1s3.1-0.8,3.1-3.1S42.7,317.9,40.7,317.9 M53.9,317.9c-2.3,0-3.1,1.2-3.1,3.1l0,0l0,0c0,2.3,1.2,3.1,3.1,3.1
		c2.3,0,3.1-1.2,3.1-3.1l0,0C57,318.7,55.8,317.9,53.9,317.9 M47.3,317.9c-2.3,0-3.1,1.2-3.1,3.1c0,1.9,1.2,3.1,3.1,3.1
		s3.1-1.2,3.1-3.1l0,0l0,0C50.4,318.7,49.2,317.9,47.3,317.9 M40.7,311.3L40.7,311.3c-2.3,0-3.1,1.2-3.1,3.1c0,2.3,1.2,3.1,3.1,3.1
		c2.3,0,3.1-1.2,3.1-3.1C43.8,312.1,42.7,311.3,40.7,311.3 M40.7,304.8c-2.3,0-3.1,0.8-3.1,3.1c0,2.3,1.2,3.1,3.1,3.1l0,0
		c1.9,0,3.1-1.2,3.1-3.1C43.8,305.9,42.7,304.8,40.7,304.8 M40.7,297.8c-2.3,0-3.1,1.2-3.1,3.5c0,2.3,1.2,3.1,3.1,3.1
		s3.1-1.2,3.1-3.1l0,0C43.8,299,42.7,297.8,40.7,297.8 M60.4,350.8c2.3,0,3.1-1.2,3.1-3.1c0-1.9-1.2-3.5-3.1-3.5
		c-2.3,0-3.1,1.2-3.1,3.1l0,0C57.3,349.6,58.1,350.8,60.4,350.8 M67,337.6c-2.3,0-3.1,1.2-3.1,3.1c0,2.3,1.2,3.1,3.1,3.1
		c2.3,0,3.1-1.2,3.1-3.1C70.1,338.8,68.9,337.6,67,337.6 M60.4,337.6c-2.3,0-3.1,1.2-3.1,3.1l0,0c0,2.3,1.2,3.1,3.1,3.1
		c2.3,0,3.1-1.2,3.1-3.1C63.5,338.8,62.4,337.6,60.4,337.6 M53.9,337.6c-2.3,0-3.1,1.2-3.1,3.1c0,2.3,0.8,3.5,3.1,3.5
		s3.1-1.2,3.1-3.1l0,0C57,338.8,55.8,337.6,53.9,337.6 M47.3,344.2c2.3,0,3.1-1.2,3.1-3.1c0-2.3-1.2-3.1-3.1-3.1s-3.1,1.2-3.1,3.1
		l0,0C44.2,343,45,344.2,47.3,344.2 M47.3,337.2L47.3,337.2c2.3,0,3.1-1.2,3.1-3.1c0-1.9-1.2-3.1-3.1-3.1s-3.1,1.2-3.1,3.1l0,0
		C44.2,336.5,45,337.2,47.3,337.2"/>
	<path class="st0" d="M47.3,324.5c-1.9,0-3.1,1.2-3.1,3.1l0,0c0,1.9,1.2,3.1,3.1,3.1c2.3,0,3.1-1.2,3.1-3.1h0.4
		c0,2.3,1.2,3.1,3.1,3.1c2.3,0,3.1-1.2,3.1-3.1h0.4c0,2.3,1.2,3.1,3.1,3.1c2.3,0,3.1-1.2,3.1-3.1h0.4c0,2.3,1.2,3.1,3.1,3.1
		c2.3,0,3.1-1.2,3.1-3.1h0.4c0,2.3,1.2,3.1,3.1,3.1c2.3,0,3.1-1.2,3.1-3.1c0-2.3-1.2-3.1-3.1-3.1v-0.4c2.3,0,3.1-1.2,3.1-3.1
		c0-2.3-1.2-3.1-3.1-3.1v-0.4c2.3,0,3.1-1.2,3.1-3.1c0-2.3-1.2-3.1-3.1-3.1c-2.3,0-3.1,1.2-3.1,3.1l0,0c0,2.3,1.2,3.1,3.1,3.1v0.4
		c-2.3,0-3.1,1.2-3.1,3.1c0,1.9,1.2,3.1,3.1,3.1v0.4c-2.3,0-3.1,1.2-3.1,3.1h-0.4c0-2.3-1.2-3.1-3.1-3.1c-2.3,0-3.1,1.2-3.1,3.1
		h-0.4c0-2.3-1.2-3.1-3.1-3.1c-2.3,0-3.1,1.2-3.1,3.1H57c0-2.3-1.2-3.1-3.1-3.1c-2.3,0-3.1,1.2-3.1,3.1h-0.4
		C50.4,325.6,49.2,324.5,47.3,324.5"/>
	<path class="st0" d="M70.1,314.4c0-2.3-1.2-3.1-3.1-3.1c-2.3,0-3.1,1.2-3.1,3.1c0,1.9,1.2,3.1,3.1,3.1S70.1,316.4,70.1,314.4z
		 M60.4,311.3c-2.3,0-3.1,1.2-3.1,3.1l0,0c0,2.3,1.2,3.1,3.1,3.1c2.3,0,3.1-1.2,3.1-3.1C63.5,312.1,62.4,311.3,60.4,311.3
		 M53.9,311.3c-2.3,0-3.1,1.2-3.1,3.1l0,0l0,0c0,2.3,1.2,3.1,3.1,3.1c2.3,0,3.1-1.2,3.1-3.1l0,0C57,312.1,55.8,311.3,53.9,311.3
		 M47.3,311.3L47.3,311.3c-2.3,0-3.1,1.2-3.1,3.1c0,2.3,1.2,3.1,3.1,3.1c2.3,0,3.1-1.2,3.1-3.1l0,0l0,0
		C50.4,312.1,49.2,311.3,47.3,311.3 M47.3,304.8c-2.3,0-3.1,0.8-3.1,3.1c0,2.3,1.2,3.1,3.1,3.1l0,0c2.3,0,3.1-1.2,3.1-3.1
		C50.4,305.9,49.2,304.8,47.3,304.8 M47.3,304.4c2.3,0,3.1-1.2,3.1-3.1l0,0c0-2.3-1.2-3.5-3.1-3.5l0,0c-2.3,0-3.1,1.2-3.1,3.5l0,0
		C44.2,303.2,45,304.4,47.3,304.4 M53.9,304.4c2.3,0,3.1-1.2,3.1-3.1l0,0c0-2.3-1.2-3.5-3.1-3.5l0,0c-2.3,0-3.1,1.2-3.1,3.5l0,0
		C50.8,303.2,51.6,304.4,53.9,304.4 M60.4,297.8L60.4,297.8c-2.3,0-3.1,1.2-3.1,3.5l0,0l0,0c0,2.3,1.2,3.1,3.1,3.1
		c2.3,0,3.1-1.2,3.1-3.1C63.5,299,62.4,297.8,60.4,297.8 M67,304.4c2.3,0,3.1-1.2,3.1-3.1c0-2.3-1.2-3.5-3.1-3.5l0,0l0,0
		c-1.9,0-3.1,1.2-3.1,3.1C63.9,303.2,64.7,304.4,67,304.4 M76.7,288.2c0-2.3-1.2-3.1-3.1-3.1c-2.3,0-3.1,1.2-3.1,3.1l0,0
		c0,2.3,1.2,3.1,3.1,3.1v0.4c-2.3,0-3.1,1.2-3.1,3.1c0,2.3,1.2,3.1,3.1,3.1l0,0c-2.3,0-3.1,1.2-3.1,3.1l0,0c0,2.3,1.2,3.1,3.1,3.1
		c2.3,0,3.1-1.2,3.1-3.1c0-2.3-1.2-3.1-3.1-3.1l0,0c2.3,0,3.1-1.2,3.1-3.1c0-2.3-1.2-3.1-3.1-3.1v-0.4
		C75.5,291.2,76.7,290.1,76.7,288.2 M67,291.2c2.3,0,3.1-1.2,3.1-3.1c0-2.3-1.2-3.1-3.1-3.1c-2.3,0-3.1,1.2-3.1,3.1
		C63.9,290.1,64.7,291.2,67,291.2 M60.4,291.2c2.3,0,3.1-1.2,3.1-3.1c0-2.3-1.2-3.1-3.1-3.1c-2.3,0-3.1,1.2-3.1,3.1
		C57.3,290.1,58.1,291.2,60.4,291.2 M53.9,291.2c2.3,0,3.1-1.2,3.1-3.1c0-2.3-1.2-3.1-3.1-3.1c-2.3-0.4-3.1,0.8-3.1,3.1
		C50.8,290.1,51.6,291.2,53.9,291.2 M47.3,291.2c2.3,0,3.1-1.2,3.1-3.1c0-2.3-1.2-3.1-3.1-3.1c-2.3,0-3.1,1.2-3.1,3.1
		C44.2,290.1,45,291.2,47.3,291.2 M40.7,291.2c1.9,0,3.1-1.2,3.1-3.1c0-2.3-1.2-3.1-3.1-3.1c-2.3,0-3.1,1.2-3.1,3.1
		C37.6,290.1,38.4,291.2,40.7,291.2"/>
	<path class="st0" d="M76.7,340.7c0-2.3-1.2-3.1-3.1-3.1c-2.3,0-3.1,1.2-3.1,3.1l0,0c0,2.3,1.2,3.1,3.1,3.1v0.4
		c-2.3,0-3.1,1.2-3.1,3.1c0,2.3,1.2,3.1,3.1,3.1v0.4c-2.3,0-3.1,1.2-3.1,3.1h-0.4c0-2.3-1.2-3.1-3.1-3.1c-2.3,0-3.1,1.2-3.1,3.1
		h-0.4c0-2.3-1.2-3.1-3.1-3.1s-3.1,1.2-3.1,3.1H57c0-2.3-1.2-3.1-3.1-3.1c-2.3,0-3.1,1.2-3.1,3.1h-0.4c0-2.3-1.2-3.1-3.1-3.1
		c-2.3,0-3.1,1.2-3.1,3.1h-0.4c0-2.3-1.2-3.1-3.1-3.1c-2.3,0-3.1,1.2-3.1,3.1h-0.4c0-2.3-1.2-3.1-3.1-3.1v-0.4
		c2.3,0,3.1-1.2,3.1-3.1c0-1.9-1.2-3.1-3.1-3.1l0,0c2.3,0,3.1-1.2,3.1-3.1c0-2.3-1.2-3.1-3.1-3.1v-0.4c2.3,0,3.1-1.2,3.1-3.1
		c0-2.3-1.2-3.1-3.1-3.1V331c2.3,0,3.1-1.2,3.1-3.1c0-2.3-1.2-3.1-3.1-3.1v-0.4c2.3,0,3.1-1.2,3.1-3.1c0-2.3-1.2-3.1-3.1-3.1v-0.4
		c2.3,0,3.1-1.2,3.1-3.1c0-2.3-1.2-3.1-3.1-3.1V311c2.3,0,3.1-1.2,3.1-3.1c0-1.9-1.2-3.1-3.1-3.1v-0.4c2.3,0,3.1-1.2,3.1-3.1
		c0-2.3-1.2-3.5-3.1-3.5l0,0c1.9,0,3.1-1.2,3.1-3.1c0-2.3-1.2-3.1-3.1-3.1v-0.4c1.9,0,3.1-1.2,3.1-3.1l0,0c0-2.3-1.2-3.1-3.1-3.1
		c-2.3,0-3.1,1.2-3.1,3.1c0,2.3,1.2,3.1,3.1,3.1v0.4c-2.3,0-3.1,1.2-3.1,3.1c0,1.9,0.8,3.1,3.1,3.1l0,0c-2.3,0-3.1,1.2-3.1,3.5
		c0,2.3,1.2,3.1,3.1,3.1v0.4c-2.3,0-3.1,0.8-3.1,3.1c0,2.3,1.2,3.1,3.1,3.1v0.4c-2.3,0-3.1,1.2-3.1,3.1c0,2.3,1.2,3.1,3.1,3.1v0.4
		c-2.3,0-3.1,1.2-3.1,3.1c0,2.3,1.2,3.1,3.1,3.1v0.4c-2.3,0-3.1,1.2-3.1,3.1c0,2.3,1.2,3.1,3.1,3.1v0.4c-2.3,0-3.1,1.2-3.1,3.1
		c0,2.3,1.2,3.1,3.1,3.1v0.4c-2.3,0-3.1,1.2-3.1,3.1c0,2.3,1.2,3.1,3.1,3.1v0.4c-2.3,0-3.1,1.2-3.1,3.1c0,2.3,1.2,3.1,3.1,3.1v0.4
		c-2.3,0-3.1,1.2-3.1,3.1c0,2.3,1.2,3.1,3.1,3.1c2.3,0,3.1-1.2,3.1-3.1h0.4c0,2.3,1.2,3.1,3.1,3.1c2.3,0,3.1-1.2,3.1-3.1h0.4
		c0,2.3,1.2,3.1,3.1,3.1c2.3,0,3.1-1.2,3.1-3.1h0.4c0,2.3,1.2,3.1,3.1,3.1c2.3,0,3.1-1.2,3.1-3.1h0.4c0,2.3,1.2,3.1,3.1,3.1
		c2.3,0,3.1-1.2,3.1-3.1h0.4c0,2.3,1.2,3.1,3.1,3.1c2.3,0,3.1-1.2,3.1-3.1h0.4c0,2.3,1.2,3.1,3.1,3.1c2.3,0,3.1-1.2,3.1-3.1
		c0-2.3-1.2-3.1-3.1-3.1v-0.4c2.3,0,3.1-1.2,3.1-3.1c0-2.3-1.2-3.1-3.1-3.1l0,0C75.5,344.2,76.7,343,76.7,340.7 M127.7,344.2
		c-2.3,0-3.1,1.2-3.1,3.1h-0.4c0-2.3-1.2-3.1-3.1-3.1c-2.3,0-3.1,1.2-3.1,3.1c0,1.9,1.2,3.1,3.1,3.1c2.3,0,3.1-1.2,3.1-3.1h0.4
		c0,2.3,1.2,3.1,3.1,3.1c2.3,0,3.1-1.2,3.1-3.1C130.8,345.3,129.6,344.2,127.7,344.2 M94.8,291.2c-2.3,0-3.1,1.2-3.1,3.1
		c0,2.3,1.2,3.1,3.1,3.1l0,0c1.9,0.4,3.1-0.8,3.1-2.7l0,0C97.9,292.4,96.8,291.2,94.8,291.2 M91.4,340.7c0,2.3,1.2,3.1,3.1,3.1
		c2.3,0,3.1-1.2,3.1-3.1c0-2.3-1.2-3.1-3.1-3.1C92.5,337.6,91.4,338.8,91.4,340.7 M94.8,297.8L94.8,297.8c-2.3,0-3.1,1.2-3.1,3.1
		c0,2.3,1.2,3.1,3.1,3.1c2.3,0,3.1-1.2,3.1-3.1l0,0C97.9,299,96.8,297.8,94.8,297.8 M94.8,304.8c-2.3,0-3.1,1.2-3.1,3.1
		c0,1.9,1.2,3.1,3.1,3.1l0,0c1.9,0,3.1-1.2,3.1-3.1l0,0C97.9,305.5,96.8,304.8,94.8,304.8 M94.8,311.3L94.8,311.3
		c-2.3,0-3.1,1.2-3.1,3.1c0,2.3,1.2,3.1,3.1,3.1c2.3,0,3.1-1.2,3.1-3.1l0,0C97.9,312.1,96.8,311.3,94.8,311.3 M94.8,317.9
		c-2.3,0-3.1,1.2-3.1,3.1c0,1.9,1.2,3.1,3.1,3.1c2.3,0,3.1-1.2,3.1-3.1l0,0C97.9,318.7,96.8,317.9,94.8,317.9 M94.8,324.5
		c-2.3,0-3.1,1.2-3.1,3.1c0,2.3,1.2,3.1,3.1,3.1c2.3,0,3.1-1.2,3.1-3.1l0,0C97.9,325.6,96.8,324.5,94.8,324.5 M94.8,331
		c-2.3,0-3.1,1.2-3.1,3.1c0,2.3,1.2,3.1,3.1,3.1c2.3,0,3.1-1.2,3.1-3.1l0,0C97.9,332.2,96.8,331,94.8,331 M101.4,350.8
		c2.3,0,3.1-1.2,3.1-3.1c0-1.9-1.2-3.5-3.1-3.5c-2.3,0-3.1,1.2-3.1,3.1l0,0C97.9,349.6,99.1,350.8,101.4,350.8 M108,344.2
		c-2.3,0-3.1,1.2-3.1,3.1c0,2.3,1.2,3.1,3.1,3.1c2.3,0,3.1-1.2,3.1-3.1c0-1.2-0.4-1.9-0.8-2.3C109.5,344.6,108.7,344.2,108,344.2
		 M121.1,291.2c-2.3,0-3.1,1.2-3.1,3.1l0,0c-0.4,2.3,0.8,3.5,3.1,3.5l0,0c2.3,0,3.1-1.2,3.1-3.1C124.2,292.4,123,291.2,121.1,291.2
		 M121.1,344.2c2.3,0,3.1-1.2,3.1-3.1c0-2.3-1.2-3.1-3.1-3.1c-2.3,0-3.1,1.2-3.1,3.1l0,0C117.6,343,118.8,344.2,121.1,344.2
		 M121.1,331c-2.3,0-3.1,1.2-3.1,3.1l0,0c0,2.3,1.2,3.1,3.1,3.1c2.3,0,3.1-1.2,3.1-3.1C124.2,332.2,123,331,121.1,331 M121.1,324.5
		c-2.3,0-3.1,1.2-3.1,3.1l0,0c0,2.3,1.2,3.1,3.1,3.1c2.3,0,3.1-1.2,3.1-3.1C124.2,325.6,123,324.5,121.1,324.5 M121.1,317.9
		c-2.3,0-3.1,1.2-3.1,3.1l0,0c0,2.3,1.2,3.1,3.1,3.1c2.3,0,3.1-1.2,3.1-3.1C124.2,318.7,123,317.9,121.1,317.9 M121.1,311.3
		L121.1,311.3c-2.3,0-3.1,1.2-3.1,3.1l0,0l0,0c0,2.3,1.2,3.1,3.1,3.1c2.3,0,3.1-1.2,3.1-3.1C124.2,312.1,123,311.3,121.1,311.3
		 M121.1,311L121.1,311c2.3,0,3.1-1.2,3.1-3.1c0-1.9-1.2-3.1-3.1-3.1c-2.3,0-3.1,1.2-3.1,3.1l0,0C117.6,309.8,118.8,311,121.1,311
		 M121.1,304.4c2.3,0,3.1-1.2,3.1-3.1c0-2.3-1.2-3.5-3.1-3.5l0,0c-1.9,0-3.1,1.2-3.1,3.1l0,0C117.6,303.2,118.8,304.4,121.1,304.4
		 M111.1,347.3c0,2.3,1.2,3.1,3.1,3.1c2.3,0,3.1-1.2,3.1-3.1c0-2.3-1.2-3.1-3.1-3.1C112.2,344.2,111.1,345.3,111.1,347.3
		 M127.7,337.6c-2.3,0-3.1,1.2-3.1,3.1c0,2.3,1.2,3.1,3.1,3.1c2.3,0,3.1-1.2,3.1-3.1C130.8,338.8,129.6,337.6,127.7,337.6
		 M127.7,331c-2.3,0-3.1,1.2-3.1,3.1c0,2.3,1.2,3.1,3.1,3.1c2.3,0,3.1-1.2,3.1-3.1C130.8,332.2,129.6,331,127.7,331 M127.7,324.5
		c-2.3,0-3.1,1.2-3.1,3.1c0,2.3,1.2,3.1,3.1,3.1c2.3,0,3.1-1.2,3.1-3.1C130.8,325.6,129.6,324.5,127.7,324.5 M127.7,317.9
		c-2.3,0-3.1,1.2-3.1,3.1c0,1.9,1.2,3.1,3.1,3.1c2.3,0,3.1-1.2,3.1-3.1C130.8,319.1,129.6,317.9,127.7,317.9 M127.7,311.3
		c-2.3,0-3.1,1.2-3.1,3.1c0,2.3,1.2,3.1,3.1,3.1c2.3,0,3.1-1.2,3.1-3.1C130.8,312.1,129.6,311.3,127.7,311.3 M127.7,311
		c2.3,0,3.1-1.2,3.1-3.1c0-2.3-1.2-3.1-3.1-3.1c-2.3,0-3.1,1.2-3.1,3.1C124.2,309.8,125.4,311,127.7,311 M127.7,304.4
		c1.2,0,1.9-0.4,2.3-0.8c0.4-0.4,0.8-1.2,0.8-2.3c0-2.3-1.2-3.1-3.1-3.1c-2.3,0-3.1,1.2-3.1,3.1
		C124.2,303.2,125.4,304.4,127.7,304.4 M127.7,291.2c-2.3,0-3.1,1.2-3.1,3.1c0,2.3,1.2,3.1,3.1,3.1c2.3,0,3.1-1.2,3.1-3.1
		C130.8,292.4,129.6,291.2,127.7,291.2 M127.7,284.7c-2.3,0-3.1,1.2-3.1,3.1c0,2.3,1.2,3.1,3.1,3.1c2.3,0,3.1-1.2,3.1-3.1
		C130.8,285.8,129.6,284.7,127.7,284.7 M121.1,291.2c2.3,0,3.1-1.2,3.1-3.1c0-2.3-1.2-3.1-3.1-3.1c-2.3,0-3.1,1.2-3.1,3.1
		C117.6,290.1,118.8,291.2,121.1,291.2 M111.1,327.6c0,2.3,1.2,3.1,3.1,3.1v0.4c-2.3,0-3.1,1.2-3.1,3.1c0,2.3,1.2,3.1,3.1,3.1v0.4
		c-2.3,0-3.1,1.2-3.1,3.1c0,2.3,1.2,3.1,3.1,3.1c2.3,0,3.1-1.2,3.1-3.1l0,0c0-2.3-1.2-3.1-3.1-3.1v-0.4c2.3,0,3.1-1.2,3.1-3.1l0,0
		c0-2.3-1.2-3.1-3.1-3.1v-0.4c2.3,0,3.1-1.2,3.1-3.1l0,0c0-2.3-1.2-3.1-3.1-3.1v-0.4c2.3,0,3.1-1.2,3.1-3.1l0,0
		c0-2.3-1.2-3.1-3.1-3.1v-0.4c2.3,0,3.1-1.2,3.1-3.1l0,0c0-2.3-1.2-3.1-3.1-3.1V311c2.3,0,3.1-1.2,3.1-3.1l0,0
		c0-2.3-1.2-3.1-3.1-3.1v-0.4c2.3,0,3.1-1.2,3.1-3.1l0,0c0-2.3-1.2-3.1-3.1-3.1v-0.4c2.3,0,3.1-1.2,3.1-3.1l0,0
		c0-2.3-1.2-3.1-3.1-3.1v-0.4c2.3,0,3.1-1.2,3.1-3.1l0,0c0-2.3-1.2-3.1-3.1-3.1c-2.3,0-3.1,1.2-3.1,3.1c0,2.3,1.2,3.1,3.1,3.1v0.4
		c-2.3,0-3.1,1.2-3.1,3.1c0,2.3,1.2,3.1,3.1,3.1l0,0c-2.3,0-3.1,1.2-3.1,3.1c0,2.3,1.2,3.1,3.1,3.1v0.4c-2.3,0-3.1,1.2-3.1,3.1
		c0,2.3,1.2,3.1,3.1,3.1v0.4c-2.3,0-3.1,1.2-3.1,3.1c0,2.3,1.2,3.1,3.1,3.1v0.4c-2.3,0-3.1,1.2-3.1,3.1c0,2.3,1.2,3.1,3.1,3.1v0.4
		C112.2,324.5,111.1,325.6,111.1,327.6 M108,344.2c2.3,0,3.1-1.2,3.1-3.1l0,0c0-2.3-1.2-3.1-3.1-3.1c-2.3,0-3.1,1.2-3.1,3.1
		C104.5,343,105.6,344.2,108,344.2 M104.5,340.7c0-2.3-1.2-3.1-3.1-3.1c-2.3,0-3.1,1.2-3.1,3.1c0,2.3,1.2,3.1,3.1,3.1
		C103.3,344.2,104.5,343,104.5,340.7L104.5,340.7z M101.4,337.2c2.3,0,3.1-1.2,3.1-3.1c0-2.3-1.2-3.1-3.1-3.1s-3.5,1.2-3.5,3.1l0,0
		l0,0C97.9,336.5,99.1,337.2,101.4,337.2 M101.4,330.7c2.3,0,3.1-1.2,3.1-3.1c0-2.3-1.2-3.1-3.1-3.1s-3.5,1.2-3.5,3.1l0,0l0,0
		C97.9,329.9,99.1,330.7,101.4,330.7 M101.4,324.1c2.3,0,3.1-1.2,3.1-3.1c0-1.9-1.2-3.1-3.1-3.1s-3.5,0.8-3.5,3.1l0,0l0,0
		C97.9,323.3,99.1,324.1,101.4,324.1 M101.4,317.5c2.3,0,3.1-1.2,3.1-3.1c0-2.3-1.2-3.1-3.1-3.1l0,0c-1.9,0-3.1,1.2-3.1,3.1l0,0l0,0
		C97.9,316.4,99.1,317.5,101.4,317.5 M101.4,304.8L101.4,304.8c-2.3,0-3.5,0.8-3.5,3.1l0,0l0,0c0,2.3,1.2,3.1,3.1,3.1l0,0
		c2.3,0,3.1-1.2,3.1-3.1C104.5,305.5,103.3,304.8,101.4,304.8 M101.4,304.4c2.3,0,3.1-1.2,3.1-3.1c0-2.3-1.2-3.1-3.1-3.1l0,0
		c-2.3-0.4-3.5,0.8-3.5,3.1l0,0C97.9,303.2,99.1,304.4,101.4,304.4 M101.4,291.2c-2.3,0-3.1,1.2-3.1,3.1l0,0l0,0
		c-0.4,2.3,0.8,3.5,3.1,3.5s3.1-1.2,3.1-3.1C104.5,292.4,103.3,291.2,101.4,291.2 M101.4,291.2c2.3,0,3.1-1.2,3.1-3.1
		c0-1.9-1.2-3.1-3.1-3.1c-2.3,0-3.1,1.2-3.1,3.1C98.3,290.1,99.1,291.2,101.4,291.2 M94.8,291.2c1.9,0,3.1-1.2,3.1-3.1l0,0
		c0-2.3-1.2-3.1-3.1-3.1c-2.3,0-3.1,1.2-3.1,3.1l0,0C91.4,290.1,92.5,291.2,94.8,291.2"/>
	<path class="st0" d="M121.1,350.8c-2.3,0-3.1,1.2-3.1,3.1h-0.4c0-2.3-1.2-3.1-3.1-3.1c-2.3,0-3.1,1.2-3.1,3.1h-0.4
		c0-2.3-1.2-3.1-3.1-3.1c-2.3,0-3.1,1.2-3.1,3.1h-0.4c0-2.3-1.2-3.1-3.1-3.1c-2.3,0-3.1,1.2-3.1,3.1h-0.4c0-2.3-1.2-3.1-3.1-3.1
		v-0.4c2.3,0,3.1-1.2,3.1-3.1l0,0l0,0c0-2.3-1.2-3.1-3.1-3.1c-2.3,0-3.1,1.2-3.1,3.1h-0.4c0-2.3-1.2-3.1-3.1-3.1l0,0
		c2.3,0,3.1-1.2,3.1-3.1c0-2.3-1.2-3.1-3.1-3.1v-0.4c2.3,0,3.1-1.2,3.1-3.1c0-2.3-1.2-3.1-3.1-3.1V331c2.3,0,3.1-1.2,3.1-3.1
		c0-1.9-1.2-3.1-3.1-3.1v-0.4c2.3,0,3.1-1.2,3.1-3.1c0-1.9-1.2-3.1-3.1-3.1v-0.4c2.3,0,3.1-1.2,3.1-3.1c0-1.9-1.2-3.5-3.1-3.5V311
		c2.3,0,3.1-1.2,3.1-3.1c0-2.3-1.2-3.1-3.1-3.1v-0.4c2.3,0,3.1-1.2,3.1-3.1c0-2.3-1.2-3.5-3.1-3.5l0,0c2.3,0,3.1-1.2,3.1-3.1
		c0-2.3-1.2-3.1-3.1-3.1v-0.4c2.3,0,3.1-1.2,3.1-3.1l0,0c0-2.3-1.2-3.1-3.1-3.1c-2.3,0-3.1,1.2-3.1,3.1c0,2.3,1.2,3.1,3.1,3.1v0.4
		c-2.3,0-3.1,1.2-3.1,3.1c0,2.3,1.2,3.1,3.1,3.1l0,0c-2.3,0-3.1,1.2-3.1,3.1c0,2.3,1.2,3.1,3.1,3.1v0.4c-2.3,0-3.1,1.2-3.1,3.1
		c0,2.3,1.2,3.1,3.1,3.1v0.4c-2.3,0-3.1,1.2-3.1,3.1c0,1.9,1.2,3.1,3.1,3.1v0.4c-2.3,0-3.1,1.2-3.1,3.1c0,1.9,1.2,3.1,3.1,3.1v0.4
		c-2.3,0-3.1,1.2-3.1,3.1c0,2.3,1.2,3.1,3.1,3.1v0.4c-2.3,0-3.1,1.2-3.1,3.1c0,2.3,1.2,3.1,3.1,3.1v0.4c-2.3,0-3.1,1.2-3.1,3.1
		c0,2.3,1.2,3.1,3.1,3.1v0.8c-2.3,0-3.1,1.2-3.1,3.1c0,2.3,1.2,3.1,3.1,3.1c2.3,0,3.1-1.2,3.1-3.1h0.4c0,2.3,1.2,3.1,3.1,3.1v0.4
		c-2.3,0-3.1,1.2-3.1,3.1c0,2.3,1.2,3.1,3.1,3.1c2.3,0,3.1-1.2,3.1-3.1h0c0,2.3,1.2,3.1,3.1,3.1c2.3,0,3.1-1.2,3.1-3.1h0.4
		c0,2.3,1.2,3.1,3.1,3.1c2.3,0,3.1-1.2,3.1-3.1h0.4c0,1.2,0.4,1.9,0.8,2.3c0.4,0.4,1.2,0.8,2.3,0.8c2.3,0,3.1-1.2,3.1-3.1h0.4
		c0,2.3,1.2,3.1,3.1,3.1c2.3,0,3.1-1.2,3.1-3.1C124.2,351.9,123,350.8,121.1,350.8 M181.4,344.2c-2.3,0-3.1,1.2-3.1,3.1
		c0,2.3,1.2,3.1,3.1,3.1c2.3,0,3.1-1.2,3.1-3.1C184.5,345.3,183.7,344.2,181.4,344.2 M161.7,317.9L161.7,317.9
		c-2.3,0-3.1,1.2-3.1,3.1l0,0c0,2.3,1.2,3.1,3.1,3.1s3.1-1.2,3.1-3.1l0,0C164.8,318.7,164,317.9,161.7,317.9 M155.1,317.9
		L155.1,317.9c-2.3,0-3.1,1.2-3.1,3.1c0,2.3,1.2,3.1,3.1,3.1c2.3,0,3.1-1.2,3.1-3.1l0,0l0,0C158.2,318.7,157.4,317.9,155.1,317.9
		 M148.5,291.2L148.5,291.2c-2.3,0-3.1,1.2-3.1,3.1c0,2.3,1.2,3.1,3.1,3.1l0,0c2.3,0,3.1-1.2,3.1-3.1
		C151.6,292.4,150.9,291.2,148.5,291.2 M155.1,291.2c-2.3,0-3.1,1.2-3.1,3.1c0,2.3,1.2,3.5,3.1,3.5c2.3,0,3.1-1.2,3.1-3.1l0,0
		C158.2,292.4,157.4,291.2,155.1,291.2 M161.7,291.2L161.7,291.2c-2.3,0-3.1,1.2-3.1,3.1l0,0l0,0c0,2.3,1.2,3.5,3.1,3.5
		s3.1-1.2,3.1-3.1l0,0C164.8,292.4,164,291.2,161.7,291.2 M168.2,291.2c-2.3,0-3.1,1.2-3.1,3.1l0,0c0,2.3,1.2,3.1,3.1,3.1
		c2.3,0.4,3.1-0.8,3.1-2.7C171.3,292.4,170.6,291.2,168.2,291.2 M161.7,311.3c-2.3,0-3.1,1.2-3.1,3.1c0,2.3,1.2,3.1,3.1,3.1l0,0
		c1.9,0,3.1-1.2,3.1-3.1l0,0C164.8,312.1,164,311.3,161.7,311.3 M155.1,317.5L155.1,317.5c2.3,0,3.1-1.2,3.1-3.1
		c0-2.3-1.2-3.1-3.1-3.1c-2.3,0-3.1,1.2-3.1,3.1l0,0C152,316.4,153.2,317.5,155.1,317.5 M148.5,324.5L148.5,324.5
		c-2.3,0-3.1,1.2-3.1,3.1c0,2.3,1.2,3.1,3.1,3.1s3.1-1.2,3.1-3.1l0,0l0,0C151.6,325.6,150.9,324.5,148.5,324.5 M148.5,337.2
		c1.9,0,3.1-1.2,3.1-3.1l0,0l0,0c0-1.9-1.2-3.1-3.1-3.1l0,0c-1.9,0-3.1,1.2-3.1,3.1C145.4,336.5,146.6,337.2,148.5,337.2
		 M148.5,337.6L148.5,337.6c-2.3,0-3.1,1.2-3.1,3.1c0,2.3,1.2,3.1,3.1,3.1l0,0c1.9,0,3.1-1.2,3.1-3.1l0,0l0,0
		C151.6,338.8,150.9,337.6,148.5,337.6 M148.5,344.2c-2.3,0-3.1,1.2-3.1,3.1c0,2.3,1.2,3.1,3.1,3.1l0,0c1.9,0,3.1-1.2,3.1-3.1l0,0
		l0,0C151.6,345.3,150.9,344.2,148.5,344.2 M148.5,317.9L148.5,317.9c-2.3,0-3.1,1.2-3.1,3.1c0,2.3,1.2,3.1,3.1,3.1
		c2.3,0,3.1-1.2,3.1-3.1C151.6,318.7,150.9,317.9,148.5,317.9 M148.5,297.8L148.5,297.8c-2.3,0-3.1,1.2-3.1,3.1
		c0,2.3,1.2,3.1,3.1,3.1c2.3,0,3.1-1.2,3.1-3.1l0,0l0,0C151.6,299,150.9,297.8,148.5,297.8 M155.1,297.8L155.1,297.8
		c-1.9,0-3.1,1.2-3.1,3.5l0,0c0,2.3,1.2,3.1,3.1,3.1s3.1-1.2,3.1-3.1l0,0C158.2,299,157.4,297.8,155.1,297.8 M158.2,307.9
		c0-2.3-1.2-3.1-3.1-3.1l0,0c-1.9,0-3.1,0.8-3.1,3.1c0,2.3,1.2,3.1,3.1,3.1C157.4,311,158.2,309.8,158.2,307.9 M145.4,307.9
		c0,2.3,1.2,3.1,3.1,3.1c2.3,0,3.1-1.2,3.1-3.1c0-2.3-1.2-3.1-3.1-3.1l0,0C146.6,304.8,145.4,305.5,145.4,307.9L145.4,307.9z
		 M145.4,314.4c0,2.3,1.2,3.1,3.1,3.1l0,0c1.9,0,3.1-1.2,3.1-3.1c0-2.3-1.2-3.1-3.1-3.1S145.4,312.1,145.4,314.4L145.4,314.4z
		 M161.7,297.8L161.7,297.8c-2.3,0-3.1,1.2-3.1,3.1c0,2.3,1.2,3.1,3.1,3.1c2.3,0,3.1-1.2,3.1-3.1l0,0
		C164.8,299,164,297.8,161.7,297.8 M168.2,304.4c2.3,0,3.1-1.2,3.1-3.1c0-2.3-0.8-3.5-3.1-3.5s-3.1,1.2-3.1,3.1l0,0
		C165.2,303.2,166.3,304.4,168.2,304.4 M174.8,304.4c2.3,0,3.1-1.2,3.1-3.1l0,0c0-2.3-1.2-3.1-3.1-3.1c-2.3,0-3.1,1.2-3.1,3.1
		C171.7,303.2,172.9,304.4,174.8,304.4 M168.2,311L168.2,311c2.3,0,3.1-1.2,3.1-3.1c0-2.3-1.2-3.1-3.1-3.1l0,0
		c-1.9,0-3.1,1.2-3.1,3.1C165.2,309.8,166.3,311,168.2,311 M168.2,317.5L168.2,317.5c2.3,0,3.1-1.2,3.1-3.1c0-1.9-1.2-3.1-3.1-3.1
		l0,0c-1.9,0-3.1,1.2-3.1,3.1l0,0l0,0C165.2,316.4,166.3,317.5,168.2,317.5 M174.8,311c2.3,0,3.1-1.2,3.1-3.1l0,0
		c0-2.3-1.2-3.1-3.1-3.1c-2.3,0-3.1,1.2-3.1,3.1C171.7,309.8,172.9,311,174.8,311 M168.2,317.9c-2.3,0-3.1,1.2-3.1,3.1l0,0
		c0,2.3,1.2,3.1,3.1,3.1c2.3,0,3.1-1.2,3.1-3.1l0,0C171.3,318.7,170.6,317.9,168.2,317.9 M174.8,331L174.8,331
		c-2.3,0-3.1,1.2-3.1,3.1l0,0c0,2.3,1.2,3.1,3.1,3.1c2.3,0,3.1-1.2,3.1-3.1C177.9,332.2,177.1,331,174.8,331 M174.8,350.8
		L174.8,350.8c2.3,0,3.1-1.2,3.1-3.1c0-2.3-1.2-3.1-3.1-3.1c-2.3,0-3.1,1.2-3.1,3.1l0,0C171.7,349.6,172.9,350.8,174.8,350.8
		 M174.8,337.6c-2.3,0-3.1,1.2-3.1,3.1l0,0l0,0c0,2.3,1.2,3.1,3.1,3.1c2.3,0,3.1-1.2,3.1-3.1C177.9,338.8,177.1,337.6,174.8,337.6
		 M181.4,337.6c-2.3,0-3.1,1.2-3.1,3.1c0,2.3,1.2,3.1,3.1,3.1c2.3,0,3.1-1.2,3.1-3.1C184.5,338.8,183.7,337.6,181.4,337.6
		 M181.4,331c-2.3,0-3.1,1.2-3.1,3.1c0,2.3,1.2,3.1,3.1,3.1c2.3,0,3.1-1.2,3.1-3.1C184.5,332.2,183.7,331,181.4,331 M181.4,324.5
		c-2.3,0-3.1,1.2-3.1,3.1c0,2.3,1.2,3.1,3.1,3.1c2.3,0,3.1-1.2,3.1-3.1C184.5,325.6,183.7,324.5,181.4,324.5 M174.8,324.5
		c-2.3,0-3.1,1.2-3.1,3.1l0,0l0,0c0,2.3,1.2,3.1,3.1,3.1l0,0c1.9,0,3.1-1.2,3.1-3.1C177.9,325.6,177.1,324.5,174.8,324.5
		 M174.8,317.9c-2.3,0-3.1,1.2-3.1,3.1l0,0l0,0c0,2.3,1.2,3.1,3.1,3.1c2.3,0,3.1-1.2,3.1-3.1C177.9,319.1,177.1,317.9,174.8,317.9
		 M174.8,317.5c2.3,0,3.1-1.2,3.1-3.1l0,0c0-2.3-1.2-3.1-3.1-3.1c-2.3,0-3.1,1.2-3.1,3.1C171.7,316.4,172.9,317.5,174.8,317.5
		 M181.4,317.5c2.3,0,3.1-1.2,3.1-3.1c0-2.3-1.2-3.1-3.1-3.1c-2.3,0-3.1,1.2-3.1,3.1l0,0C178.3,316.4,179.5,317.5,181.4,317.5
		 M181.4,311c2.3,0,3.1-1.2,3.1-3.1c0-2.3-1.2-3.1-3.1-3.1c-2.3,0-3.1,1.2-3.1,3.1l0,0C178.3,309.8,179.5,311,181.4,311
		 M181.4,304.4c2.3,0,3.1-1.2,3.1-3.1c0-2.3-1.2-3.1-3.1-3.1c-2.3,0-3.1,1.2-3.1,3.1l0,0C178.3,303.2,179.5,304.4,181.4,304.4
		 M181.4,297.8c2.3,0,3.1-1.2,3.1-3.1c0-2.3-1.2-3.1-3.1-3.1s-3.1,1.2-3.1,3.1l0,0l0,0C178.3,296.7,179.5,297.8,181.4,297.8
		 M174.8,291.2c-2.3,0-3.1,1.2-3.1,3.1c0,2.3,1.2,3.1,3.1,3.1s3.1-1.2,3.1-3.1l0,0C177.9,292.4,177.1,291.2,174.8,291.2
		 M174.8,291.2c2.3,0,3.1-1.2,3.1-3.1c0-1.9-1.2-3.1-3.1-3.1c-2.3,0-3.1,1.2-3.1,3.1l0,0C171.7,290.1,172.9,291.2,174.8,291.2
		 M168.2,291.2c2.3,0,3.1-1.2,3.1-3.1c0-1.9-1.2-3.1-3.1-3.1c-2.3,0-3.1,1.2-3.1,3.1l0,0C165.2,290.1,166.3,291.2,168.2,291.2
		 M161.7,291.2c2.3,0,3.1-1.2,3.1-3.1l0,0c0-2.3-1.2-3.1-3.1-3.1c-2.3,0-3.1,1.2-3.1,3.1l0,0C158.6,290.1,159.7,291.2,161.7,291.2
		 M155.1,291.2c2.3,0,3.1-1.2,3.1-3.1c0-1.9-1.2-3.1-3.1-3.1c-2.3,0-3.1,1.2-3.1,3.1l0,0C152,290.1,153.2,291.2,155.1,291.2
		 M148.5,291.2c2.3,0,3.1-1.2,3.1-3.1l0,0c0-2.3-1.2-3.1-3.1-3.1c-2.3,0-3.1,1.2-3.1,3.1l0,0C145.4,290.1,146.6,291.2,148.5,291.2"
		/>
	<path class="st0" d="M155.1,350.8c-2.3,0-3.1,1.2-3.1,3.1h-0.4c0-2.3-1.2-3.1-3.1-3.1c-2.3,0-3.1,1.2-3.1,3.1h-0.4
		c0-2.3-1.2-3.1-3.1-3.1v-0.4c2.3,0,3.1-1.2,3.1-3.1c0-1.9-0.8-3.1-3.1-3.1l0,0c2.3,0,3.1-1.2,3.1-3.1c0-2.3-1.2-3.1-3.1-3.1v-0.4
		c2.3,0,3.1-1.2,3.1-3.1c0-2.3-1.2-3.1-3.1-3.1V331c2.3,0,3.1-1.2,3.1-3.1c0-1.9-1.2-3.1-3.1-3.1v-0.4c2.3,0,3.1-1.2,3.1-3.1
		c0-1.9-1.2-3.1-3.1-3.1v-0.4c2.3,0,3.1-1.2,3.1-3.1c0-1.9-0.8-3.5-3.1-3.5V311c2.3,0,3.1-1.2,3.1-3.1c0-2.3-1.2-3.1-3.1-3.1v-0.4
		c2.3,0,3.1-1.2,3.1-3.1c0-2.3-0.8-3.5-3.1-3.5l0,0c2.3,0,3.1-1.2,3.1-3.1c0-2.3-1.2-3.1-3.1-3.1v-0.4c2.3,0,3.1-1.2,3.1-3.1l0,0
		c0-2.3-1.2-3.1-3.1-3.1c-2.3,0-3.1,1.2-3.1,3.1c0,2.3,1.2,3.1,3.1,3.1v0.4c-2.3,0-3.1,1.2-3.1,3.1c0,2.3,1.2,3.1,3.1,3.1l0,0
		c-2.3,0-3.1,1.2-3.1,3.1c0,2.3,1.2,3.1,3.1,3.1v0.4c-2.3,0-3.1,1.2-3.1,3.1c0,2.3,1.2,3.1,3.1,3.1v0.4c-2.3,0-3.1,1.2-3.1,3.1
		c0,1.9,1.2,3.1,3.1,3.1v0.4c-2.3,0-3.1,1.2-3.1,3.1c0,1.9,1.2,3.1,3.1,3.1v0.4c-2.3,0-3.1,1.2-3.1,3.1c0,2.3,1.2,3.1,3.1,3.1v0.4
		c-2.3,0-3.1,1.2-3.1,3.1c0,2.3,1.2,3.1,3.1,3.1v0.4c-2.3,0-3.1,1.2-3.1,3.1c0,2.3,1.2,3.1,3.1,3.1v0.8c-2.3,0-3.1,1.2-3.1,3.1
		c0,2.3,1.2,3.1,3.1,3.1v0.4c-2.3,0-3.1,1.2-3.1,3.1c0,2.3,1.2,3.1,3.1,3.1c2.3,0,3.1-1.2,3.1-3.1h0.4c0,2.3,1.2,3.1,3.1,3.1
		c2.3,0,3.1-1.2,3.1-3.1h0.4c0,2.3,1.2,3.1,3.1,3.1c2.3,0,3.1-1.2,3.1-3.1C158.2,351.9,157.4,350.8,155.1,350.8"/>
	<path class="st0" d="M155.1,344.2c-1.9,0-3.1,1.2-3.1,3.1l0,0c0,2.3,1.2,3.1,3.1,3.1c2.3,0,3.1-1.2,3.1-3.1
		C158.2,345.3,157.4,344.2,155.1,344.2 M155.1,337.6c-1.9,0-3.1,1.2-3.1,3.1l0,0c0,1.9,1.2,3.1,3.1,3.1l0,0c2.3,0,3.1-1.2,3.1-3.1
		C158.2,338.8,157.4,337.6,155.1,337.6 M155.1,331c-1.9,0-3.1,1.2-3.1,3.1l0,0c0,2.3,1.2,3.1,3.1,3.1c2.3,0,3.1-1.2,3.1-3.1
		C158.2,332.2,157.4,331,155.1,331 M155.1,324.5c-2.3,0-3.1,1.2-3.1,3.1l0,0c0,2.3,1.2,3.1,3.1,3.1c2.3,0,3.1-1.2,3.1-3.1
		C158.2,325.6,157.4,324.5,155.1,324.5 M161.7,324.5c-2.3,0-3.1,1.2-3.1,3.1l0,0c0,2.3,1.2,3.1,3.1,3.1c2.3,0,3.1-1.2,3.1-3.1l0,0
		C164.8,325.6,164,324.5,161.7,324.5 M181.4,350.8c-2.3,0-3.1,1.2-3.1,3.1h-0.4c0-2.3-1.2-3.1-3.1-3.1c-2.3,0-3.1,1.2-3.1,3.1h-0.4
		c0-2.3-1.2-3.1-3.1-3.1v-0.4c2.3,0,3.1-1.2,3.1-3.1l0,0c0-2.3-1.2-3.1-3.1-3.1l0,0c2.3,0,3.1-1.2,3.1-3.1l0,0
		c0-2.3-1.2-3.1-3.1-3.1v-0.4c2.3,0,3.1-1.2,3.1-3.1l0,0c0-2.3-1.2-3.1-3.1-3.1V331c2.3,0,3.1-1.2,3.1-3.1l0,0
		c0-2.3-1.2-3.1-3.1-3.1c-2.3,0-3.1,1.2-3.1,3.1c0,1.9,1.2,3.1,3.1,3.1v0.4c-2.3,0-3.1,1.2-3.1,3.1c0,2.3,1.2,3.1,3.1,3.1v0.4
		c-2.3,0-3.1,1.2-3.1,3.1c0,2.3,1.2,3.1,3.1,3.1l0,0c-2.3,0-3.1,1.2-3.1,3.1c0,2.3,1.2,3.1,3.1,3.1v0.4c-2.3,0-3.1,1.2-3.1,3.1
		c0,2.3,1.2,3.1,3.1,3.1c2.3,0,3.1-1.2,3.1-3.1h0.4c0,2.3,1.2,3.1,3.1,3.1c2.3,0,3.1-1.2,3.1-3.1h0.4c0,2.3,1.2,3.1,3.1,3.1
		c2.3,0,3.1-1.2,3.1-3.1C184.5,351.9,183.7,350.8,181.4,350.8 M235.5,344.2c-2.3,0-3.1,1.2-3.1,3.1H232c0-2.3-1.2-3.1-3.1-3.1
		s-3.1,1.2-3.1,3.1c0,2.3,1.2,3.1,3.1,3.1s3.1-1.2,3.1-3.1h0.4c0,2.3,1.2,3.1,3.1,3.1c2.3,0,3.1-1.2,3.1-3.1
		C238.6,345.3,237.4,344.2,235.5,344.2 M209.2,291.2c-2.3,0-3.1,1.2-3.1,3.1c0,2.3,0.8,3.5,3.1,3.5l0,0c1.9,0,3.1-1.2,3.1-3.1l0,0
		C212.3,292.4,211.1,291.2,209.2,291.2 M215.8,297.8c2.3,0,3.1-1.2,3.1-3.1l0,0l0,0c0-1.9-1.2-3.1-3.1-3.1l0,0
		c-1.9,0-3.1,1.2-3.1,3.1l0,0C212.7,296.7,213.5,297.8,215.8,297.8 M222.3,297.8c1.9,0,3.1-1.2,3.1-3.1c0-2.3-1.2-3.1-3.1-3.1l0,0
		c-1.9,0-3.1,1.2-3.1,3.1l0,0C219.3,296.7,220,297.8,222.3,297.8 M222.3,350.8c2.3,0,3.1-1.2,3.1-3.1c0-1.9-1.2-3.5-3.1-3.5
		c-2.3,0-3.1,1.2-3.1,3.1l0,0l0,0C219.3,349.6,220,350.8,222.3,350.8 M215.8,344.2c-2.3,0-3.1,1.2-3.1,3.1c0,2.3,1.2,3.1,3.1,3.1
		c2.3,0,3.1-1.2,3.1-3.1l0,0l0,0C218.9,345.3,217.7,344.2,215.8,344.2 M209.2,344.2c-2.3,0-3.1,1.2-3.1,3.1c0,2.3,1.2,3.1,3.1,3.1
		l0,0c1.9,0,3.1-1.2,3.1-3.1C212.3,345.3,211.1,344.2,209.2,344.2 M202.6,337.6c-2.3,0-3.1,1.2-3.1,3.1c0,2.3,1.2,3.1,3.1,3.1
		c2.3,0,3.1-1.2,3.1-3.1l0,0C205.7,338.8,204.6,337.6,202.6,337.6 M209.2,304.4c2.3,0,3.1-1.2,3.1-3.1c0-2.3-1.2-3.1-3.1-3.1l0,0
		c-2.3-0.4-3.1,0.8-3.1,3.1l0,0C206.1,303.2,206.9,304.4,209.2,304.4 M215.8,304.4c2.3,0,3.1-1.2,3.1-3.1l0,0l0,0
		c0-2.3-1.2-3.5-3.1-3.5l0,0c-1.9,0-3.1,1.2-3.1,3.1C212.7,303.2,213.5,304.4,215.8,304.4 M222.3,304.4c2.3,0,3.1-1.2,3.1-3.1
		c0-2.3-1.2-3.5-3.1-3.5l0,0c-1.9,0-3.1,1.2-3.1,3.1l0,0C219.3,303.2,220,304.4,222.3,304.4 M228.9,344.2c2.3,0,3.1-1.2,3.1-3.1
		c0-2.3-1.2-3.1-3.1-3.1c-2.3,0-3.1,1.2-3.1,3.1l0,0l0,0C225.8,343,226.6,344.2,228.9,344.2 M222.3,337.6c-2.3,0-3.1,1.2-3.1,3.1
		l0,0c0,2.3,1.2,3.1,3.1,3.1l0,0c1.9,0,3.1-1.2,3.1-3.1l0,0l0,0C225.4,338.8,224.3,337.6,222.3,337.6 M215.8,344.2L215.8,344.2
		c2.3,0,3.1-1.2,3.1-3.1l0,0c0-1.9-1.2-3.1-3.1-3.1c-2.3,0-3.1,1.2-3.1,3.1C212.7,343,213.5,344.2,215.8,344.2 M222.3,311
		c2.3,0,3.1-1.2,3.1-3.1c0-2.3-1.2-3.1-3.1-3.1s-3.1,0.8-3.1,3.1C219.3,309.8,220,311,222.3,311 M225.4,314.4c0-2.3-1.2-3.1-3.1-3.1
		l0,0l0,0c-1.9,0-3.1,1.2-3.1,3.1c0,2.3,1.2,3.1,3.1,3.1S225.4,316.4,225.4,314.4z M222.3,317.9c-2.3,0-3.1,1.2-3.1,3.1
		c0,2.3,1.2,3.1,3.1,3.1c2.3,0,3.1-1.2,3.1-3.1l0,0C225.4,318.7,224.3,317.9,222.3,317.9 M222.3,324.5c-2.3,0-3.1,1.2-3.1,3.1
		c0,2.3,1.2,3.1,3.1,3.1c2.3,0,3.1-1.2,3.1-3.1l0,0C225.4,325.6,224.3,324.5,222.3,324.5 M222.3,331c-2.3,0-3.1,1.2-3.1,3.1
		c0,2.3,1.2,3.1,3.1,3.1l0,0c2.3,0,3.1-1.2,3.1-3.1l0,0C225.4,332.2,224.3,331,222.3,331 M228.9,331c-2.3,0-3.1,1.2-3.1,3.1l0,0
		c0,2.3,1.2,3.1,3.1,3.1c2.3,0,3.1-1.2,3.1-3.1C232,332.2,230.8,331,228.9,331 M228.9,324.5c-2.3,0-3.1,1.2-3.1,3.1l0,0
		c0,2.3,1.2,3.1,3.1,3.1c2.3,0,3.1-1.2,3.1-3.1C232,325.6,230.8,324.5,228.9,324.5 M228.9,317.9c-2.3,0-3.1,1.2-3.1,3.1l0,0
		c0,2.3,1.2,3.1,3.1,3.1c2.3,0,3.1-1.2,3.1-3.1C232,318.7,230.8,317.9,228.9,317.9 M232,314.4c0-2.3-1.2-3.1-3.1-3.1
		c-2.3,0-3.1,1.2-3.1,3.1l0,0c0,2.3,1.2,3.1,3.1,3.1l0,0C230.8,317.5,232,316.4,232,314.4z M228.9,311L228.9,311
		c2.3,0,3.1-1.2,3.1-3.1c0-2.3-1.2-3.1-3.1-3.1l0,0c-1.9,0-3.1,1.2-3.1,3.1C225.8,309.8,226.6,311,228.9,311 M212.3,334.1
		c0-2.3-1.2-3.1-3.1-3.1c-2.3,0-3.1,1.2-3.1,3.1l0,0c0,2.3,1.2,3.1,3.1,3.1l0,0C211.1,337.2,212.3,336.5,212.3,334.1 M209.2,311
		L209.2,311c2.3,0,3.1-1.2,3.1-3.1c0-2.3-1.2-3.1-3.1-3.1l0,0c-2.3,0-3.1,0.8-3.1,3.1C206.1,309.8,206.9,311,209.2,311 M209.2,324.5
		c-2.3,0-3.1,1.2-3.1,3.1l0,0c0,2.3,1.2,3.1,3.1,3.1c2.3,0,3.1-1.2,3.1-3.1C212.3,325.6,211.1,324.5,209.2,324.5 M209.2,317.9
		c-2.3,0-3.1,1.2-3.1,3.1l0,0c0,2.3,1.2,3.1,3.1,3.1c2.3,0,3.1-1.2,3.1-3.1C212.3,319.1,211.1,317.9,209.2,317.9 M209.2,317.5
		c2.3,0,3.1-1.2,3.1-3.1c0-1.9-1.2-3.1-3.1-3.1c-2.3,0-3.1,1.2-3.1,3.1C206.1,316.4,206.9,317.5,209.2,317.5 M202.6,304.8
		c-2.3,0-3.1,1.2-3.1,3.1c0,1.9,1.2,3.1,3.1,3.1l0,0c2.3,0,3.1-1.2,3.1-3.1l0,0C205.7,305.5,204.6,304.8,202.6,304.8 M202.6,317.5
		L202.6,317.5c2.3,0,3.1-1.2,3.1-3.1c0-2.3-1.2-3.1-3.1-3.1c-2.3,0-3.1,1.2-3.1,3.1C199.5,316.4,200.3,317.5,202.6,317.5
		 M202.6,317.9L202.6,317.9c-2.3,0-3.1,1.2-3.1,3.1c0,2.3,1.2,3.1,3.1,3.1c2.3,0,3.1-1.2,3.1-3.1l0,0
		C205.7,318.7,204.6,317.9,202.6,317.9 M202.6,324.5c-2.3,0-3.1,1.2-3.1,3.1c0,2.3,1.2,3.1,3.1,3.1c2.3,0,3.1-1.2,3.1-3.1l0,0
		C205.7,325.6,204.6,324.5,202.6,324.5 M202.6,331c-2.3,0-3.1,1.2-3.1,3.1c0,2.3,1.2,3.1,3.1,3.1c2.3,0,3.1-1.2,3.1-3.1l0,0
		C205.7,332.2,204.6,331,202.6,331 M209.2,337.6L209.2,337.6c-2.3,0-3.1,1.2-3.1,3.1l0,0c0,2.3,1.2,3.1,3.1,3.1l0,0
		c1.9,0,3.1-1.2,3.1-3.1C212.3,338.8,211.1,337.6,209.2,337.6 M228.9,297.8L228.9,297.8c-2.3,0-3.1,1.2-3.1,3.1
		c0,2.3,1.2,3.1,3.1,3.1c2.3,0,3.1-1.2,3.1-3.1l0,0l0,0C232,299,230.8,297.8,228.9,297.8 M202.6,297.8c-2.3,0-3.1,1.2-3.1,3.1
		c0,2.3,1.2,3.1,3.1,3.1c2.3,0,3.1-1.2,3.1-3.1l0,0C205.7,299,204.6,297.8,202.6,297.8 M235.5,337.6L235.5,337.6
		c-2.3,0-3.1,1.2-3.1,3.1c0,2.3,1.2,3.1,3.1,3.1l0,0c2.3,0,3.1-1.2,3.1-3.1C238.6,338.8,237.4,337.6,235.5,337.6 M235.5,331
		c-2.3,0-3.1,1.2-3.1,3.1c0,2.3,1.2,3.1,3.1,3.1l0,0c2.3,0,3.1-1.2,3.1-3.1C238.6,332.2,237.4,331,235.5,331 M235.5,330.7
		c2.3,0,3.1-1.2,3.1-3.1c0-2.3-1.2-3.1-3.1-3.1s-3.1,1.2-3.1,3.1C232.4,329.9,233.2,330.7,235.5,330.7 M232.4,321
		c0,2.3,1.2,3.1,3.1,3.1c2.3,0,3.1-1.2,3.1-3.1c0-1.9-1.2-3.1-3.1-3.1C233.2,317.9,232.4,318.7,232.4,321 M235.5,311.3
		c-2.3,0-3.1,1.2-3.1,3.1c0,2.3,1.2,3.1,3.1,3.1s3.1-1.2,3.1-3.1C238.6,312.1,237.4,311.3,235.5,311.3 M235.5,311
		c2.3,0,3.1-1.2,3.1-3.1c0-2.3-1.2-3.1-3.1-3.1s-3.1,0.8-3.1,3.1c0,1.2,0.4,1.9,0.8,2.3C233.5,310.6,234.3,311,235.5,311
		 M235.5,304.4c2.3,0,3.1-1.2,3.1-3.1c0-2.3-1.2-3.1-3.1-3.1c-2.3,0-3.1,1.2-3.1,3.1l0,0C232.4,303.2,233.2,304.4,235.5,304.4
		 M235.5,297.8c2.3,0,3.1-1.2,3.1-3.1c0-2.3-1.2-3.1-3.1-3.1s-3.1,1.2-3.1,3.1C232.4,296.7,233.2,297.8,235.5,297.8 M228.9,291.2
		c-2.3,0-3.1,1.2-3.1,3.1c0,2.3,1.2,3.1,3.1,3.1s3.1-1.2,3.1-3.1C232,292.4,230.8,291.2,228.9,291.2 M228.9,291.2
		c2.3,0,3.1-1.2,3.1-3.1c0-2.3-1.2-3.1-3.1-3.1s-3.1,1.2-3.1,3.1C225.8,290.1,226.6,291.2,228.9,291.2 M222.3,291.2
		c1.9,0,3.1-1.2,3.1-3.1l0,0c0-2.3-1.2-3.1-3.1-3.1s-3.1,1.2-3.1,3.1C219.3,290.1,220,291.2,222.3,291.2 M215.8,291.2
		c2.3,0,3.1-1.2,3.1-3.1l0,0c0-2.3-1.2-3.1-3.1-3.1s-3.1,1.2-3.1,3.1l0,0C212.7,290.1,213.5,291.2,215.8,291.2 M209.2,291.2
		c2.3,0,3.1-1.2,3.1-3.1l0,0c0-2.3-1.2-3.1-3.1-3.1c-2.3,0-3.1,1.2-3.1,3.1l0,0C206.1,290.1,206.9,291.2,209.2,291.2 M202.6,291.2
		L202.6,291.2c-2.3,0.4-3.1,1.2-3.1,3.5l0,0c0,2.3,1.2,3.1,3.1,3.1c2.3,0,3.1-1.2,3.1-3.1C205.7,292.4,204.6,291.2,202.6,291.2
		L202.6,291.2c2.3,0,3.1-1.2,3.1-3.1l0,0c0-2.3-1.2-3.1-3.1-3.1c-2.3,0-3.1,1.2-3.1,3.1C199.5,290.1,200.3,291.2,202.6,291.2"/>
	<path class="st0" d="M228.9,350.8c-2.3,0-3.1,1.2-3.1,3.1h-0.4c0-2.3-1.2-3.1-3.1-3.1s-3.1,1.2-3.1,3.1h-0.4c0-2.3-1.2-3.1-3.1-3.1
		s-3.1,1.2-3.1,3.1h-0.4c0-2.3-1.2-3.1-3.1-3.1c-2.3,0-3.1,1.2-3.1,3.1h-0.4c0-2.3-1.2-3.1-3.1-3.1v-0.4c2.3,0,3.1-1.2,3.1-3.1
		c0-2.3-1.2-3.1-3.1-3.1c-2.3,0-3.1,1.2-3.1,3.1h-0.4c0-2.3-1.2-3.1-3.1-3.1l0,0c2.3,0,3.1-1.2,3.1-3.1c0-2.3-1.2-3.1-3.1-3.1v-0.4
		c2.3,0,3.1-1.2,3.1-3.1c0-2.3-1.2-3.1-3.1-3.1V331c2.3,0,3.1-1.2,3.1-3.1c0-2.3-1.2-3.1-3.1-3.1v-0.4c2.3,0,3.1-1.2,3.1-3.1
		c0-2.3-1.2-3.1-3.1-3.1v-0.4c2.3,0,3.1-1.2,3.1-3.1c0-2.3-1.2-3.1-3.1-3.1V311c2.3,0,3.1-1.2,3.1-3.1c0-2.3-1.2-3.1-3.1-3.1v-0.4
		c2.3,0,3.1-1.2,3.1-3.1c0-2.3-1.2-3.1-3.1-3.1v-0.4c2.3,0,3.1-1.2,3.1-3.1l0,0c0-2.3-1.2-3.1-3.1-3.1c-2.3,0-3.1,1.2-3.1,3.1
		c0,1.9,0.8,3.1,3.1,3.1l0,0c-2.3,0-3.1,1.2-3.1,3.1c0,2.3,1.2,3.1,3.1,3.1v0.4c-2.3,0-3.1,1.2-3.1,3.1c0,2.3,1.2,3.1,3.1,3.1v0.4
		c-2.3,0-3.1,1.2-3.1,3.1c0,2.3,1.2,3.1,3.1,3.1v0.4c-2.3,0-3.1,1.2-3.1,3.1c0,2.3,1.2,3.1,3.1,3.1v0.4c-2.3,0-3.1,1.2-3.1,3.1
		c0,2.3,1.2,3.1,3.1,3.1v0.4c-2.3,0-3.1,1.2-3.1,3.1c0,2.3,1.2,3.1,3.1,3.1v0.4c-2.3,0-3.1,1.2-3.1,3.1c0,2.3,1.2,3.1,3.1,3.1v0.8
		c-2.3,0-3.1,1.2-3.1,3.1c0,2.3,1.2,3.1,3.1,3.1c2.3,0,3.1-1.2,3.1-3.1h0.4c0,2.3,1.2,3.1,3.1,3.1v0.4c-2.3,0-3.1,1.2-3.1,3.1
		c0,1.9,1.2,3.1,3.1,3.1c2.3,0,3.1-1.2,3.1-3.1h0.4c0,2.3,1.2,3.1,3.1,3.1c2.3,0,3.1-1.2,3.1-3.1h0.4c0,2.3,1.2,3.1,3.1,3.1
		s3.1-1.2,3.1-3.1h0.4c0,2.3,1.2,3.1,3.1,3.1c2.3,0,3.1-1.2,3.1-3.1h0.4c0,2.3,1.2,3.1,3.1,3.1s3.1-1.2,3.1-3.1
		C232,351.9,230.8,350.8,228.9,350.8 M286.9,304.4L286.9,304.4L286.9,304.4c2.3,0,3.1-1.2,3.1-3.1c0-2.3-1.2-3.1-3.1-3.1
		c-2.3,0-3.1,1.2-3.1,3.1l0,0C283.8,303.2,284.9,304.4,286.9,304.4 M254,337.6L254,337.6L254,337.6c-2.3,0-3.5,1.2-3.5,3.1l0,0
		c0,2.3,1.2,3.1,3.1,3.1s3.1-1.2,3.1-3.1l0,0l0,0C257.1,338.8,256.3,337.6,254,337.6 M260.6,344.2L260.6,344.2
		c-2.3,0-3.5,1.2-3.5,3.1l0,0c0,2.3,1.2,3.1,3.1,3.1c2.3,0,3.1-1.2,3.1-3.1l0,0C263.7,345.3,262.9,344.2,260.6,344.2 M264.1,347.3
		c0,2.3,1.2,3.1,3.1,3.1c2.3,0,3.1-1.2,3.1-3.1l0,0c0-1.9-1.2-3.1-3.1-3.1h-0.4C264.8,344.2,264.1,345.3,264.1,347.3L264.1,347.3z
		 M270.6,347.3c0,2.3,1.2,3.1,3.1,3.1c2.3,0,3.1-1.2,3.1-3.1l0,0c0-1.9-1.2-3.1-3.1-3.1h-0.4C271.4,344.2,270.6,345.3,270.6,347.3
		L270.6,347.3z M280.3,291.2L280.3,291.2c-2.3,0-3.1,1.2-3.1,3.1c0,2.3,1.2,3.1,3.1,3.1l0,0c2.3,0.4,3.1-0.8,3.1-2.7l0,0
		C283.4,292.4,282.6,291.2,280.3,291.2 M280.3,297.8L280.3,297.8c-2.3,0-3.1,1.2-3.1,3.1c0,2.3,1.2,3.1,3.1,3.1
		c1.9,0,3.1-0.8,3.1-2.7l0,0C283.4,299,282.6,297.8,280.3,297.8 M280.3,311c2.3,0,3.1-1.2,3.1-3.1l0,0c0-2.3-1.2-3.1-3.1-3.1
		c-2.3,0-3.1,1.2-3.1,3.1C277.2,309.8,278.4,311,280.3,311 M280.3,317.5c2.3,0,3.1-1.2,3.1-3.1l0,0c0-2.3-1.2-3.1-3.1-3.1
		c-2.3,0-3.1,1.2-3.1,3.1C277.2,316.4,278.4,317.5,280.3,317.5 M280.3,317.9c-2.3,0-3.1,1.2-3.1,3.1c0,1.9,1.2,3.1,3.1,3.1
		c1.9,0,3.1-0.8,3.1-3.1l0,0l0,0C283.4,318.7,282.6,317.9,280.3,317.9 M280.3,324.5c-2.3,0-3.1,1.2-3.1,3.1c0,2.3,1.2,3.1,3.1,3.1
		c1.9,0,3.1-1.2,3.1-3.1l0,0l0,0C283.4,325.6,282.6,324.5,280.3,324.5 M280.3,337.2c2.3,0,3.1-1.2,3.1-3.1l0,0
		c0-2.3-1.2-3.1-3.1-3.1c-2.3,0-3.1,1.2-3.1,3.1C277.2,336.1,278.4,337.2,280.3,337.2 M280.3,344.2c2.3,0,3.1-1.2,3.1-3.1l0,0
		c0-2.3-1.2-3.1-3.1-3.1c-2.3,0-3.1,1.2-3.1,3.1C277.2,343,278.4,344.2,280.3,344.2 M286.9,291.2c-2.3,0-3.1,1.2-3.1,3.1l0,0
		c0,2.3,1.2,3.1,3.1,3.1c1.9,0,3.1-1.2,3.1-3.1C290,292.4,289.2,291.2,286.9,291.2"/>
	<path class="st0" d="M270.6,327.6c0,2.3,1.2,3.1,3.1,3.1v0.4c-2.3,0-3.1,1.2-3.1,3.1c0,2.3,1.2,3.1,3.1,3.1v0.4
		c-2.3,0-3.1,1.2-3.1,3.1c0,1.9,1.2,3.1,3.1,3.1l0,0l0,0c1.9,0,3.1-1.2,3.1-3.1c0-2.3-1.2-3.1-3.1-3.1v-0.4c2.3,0,3.1-1.2,3.1-3.1
		c0-2.3-1.2-3.1-3.1-3.1v-0.4c2.3,0,3.1-1.2,3.1-3.1c0-1.9-1.2-3.1-3.1-3.1v-0.4c2.3,0,3.1-1.2,3.1-3.1c0-2.3-1.2-3.1-3.1-3.1v-0.4
		c2.3,0,3.1-1.2,3.1-3.1c0-2.3-1.2-3.1-3.1-3.1V311c2.3,0,3.1-1.2,3.1-3.1c0-1.9-1.2-3.1-3.1-3.1v-0.4c2.3,0,3.1-1.2,3.1-3.1
		c0-2.3-1.2-3.1-3.1-3.1v-0.4c2.3,0,3.1-1.2,3.1-3.1c0-2.3-1.2-3.1-3.1-3.1v-0.4c2.3,0,3.1-1.2,3.1-3.1h0.4c0,2.3,1.2,3.1,3.1,3.1
		l0,0c2.3,0,3.1-1.2,3.1-3.1h0.4c0,2.3,1.2,3.1,3.1,3.1c2.3,0,3.1-1.2,3.1-3.1c0-2.3-1.2-3.1-3.1-3.1c-2.3,0-3.1,1.2-3.1,3.1h-0.4
		c0-2.3-1.2-3.1-3.1-3.1c-2.3,0-3.1,1.2-3.1,3.1h-0.4c0-2.3-1.2-3.1-3.1-3.1c-2.3,0-3.1,1.2-3.1,3.1c0,2.3,1.2,3.1,3.1,3.1v0.4
		c-2.3,0-3.1,1.2-3.1,3.1c0,1.9,1.2,3.1,3.1,3.1l0,0c-2.3,0-3.1,1.2-3.1,3.1c0,1.9,1.2,3.1,3.1,3.1v0.4c-2.3,0-3.1,1.2-3.1,3.1
		c0,1.9,1.2,3.1,3.1,3.1v0.4c-2.3,0-3.1,1.2-3.1,3.1c0,1.9,1.2,3.1,3.1,3.1v0.4c-2.3,0-3.1,1.2-3.1,3.1c0,2.3,1.2,3.1,3.1,3.1v0.4
		C271.8,324.5,270.6,325.6,270.6,327.6 M267.2,344.2L267.2,344.2L267.2,344.2c2.3,0,3.5-1.2,3.5-3.1c0-2.3-1.2-3.1-3.1-3.1
		c-2.3,0-3.1,1.2-3.1,3.1C264.1,343,264.8,343.8,267.2,344.2 M260.6,337.6L260.6,337.6c-1.9,0-3.1,1.2-3.1,3.1l0,0
		c0,1.9,1.2,3.1,3.1,3.1l0,0l0,0c1.9,0,3.1-1.2,3.1-3.1l0,0C263.7,338.8,262.9,337.6,260.6,337.6 M260.6,337.2L260.6,337.2
		c2.3,0,3.1-1.2,3.1-3.1c0-2.3-1.2-3.1-3.1-3.1c-1.9,0-3.1,1.2-3.1,3.1C257.5,336.1,258.7,337.2,260.6,337.2 M254,337.2L254,337.2
		L254,337.2c2.3,0,3.1-1.2,3.1-3.1c0-2.3-1.2-3.1-3.1-3.1s-3.1,1.2-3.1,3.1l0,0C250.9,336.5,252.1,337.2,254,337.2"/>
	<path class="st0" d="M280.3,350.8L280.3,350.8c-2.3,0-3.1,1.2-3.1,3.1h-0.4c0-2.3-1.2-3.1-3.1-3.1c-2.3,0-3.1,1.2-3.1,3.1h-0.4
		c0-2.3-1.2-3.1-3.1-3.1c-2.3,0-3.1,1.2-3.1,3.1h-0.4c0-2.3-1.2-3.1-3.1-3.1c-2.3,0-3.1,1.2-3.1,3.1h-0.4c0-2.3-1.2-3.1-3.1-3.1
		v-0.4c2.3,0,3.1-1.2,3.1-3.1c0-1.9-0.8-3.1-3.1-3.1s-3.1,1.2-3.1,3.1h-0.4c0-2.3-1.2-3.1-3.1-3.1l0,0c2.3,0,3.1-1.2,3.1-3.1
		c0-1.9-1.2-3.1-3.1-3.1v-0.4c2.3,0,3.1-1.2,3.1-3.1l0,0c0-2.3-1.2-3.1-3.1-3.1s-3.1,1.2-3.1,3.1c0,1.9,1.2,3.1,3.1,3.1v0.4
		c-2.3,0-3.1,1.2-3.1,3.1c0,2.3,1.2,3.1,3.1,3.1l0,0c-2.3,0-3.1,1.2-3.1,3.1c0,2.3,1.2,3.1,3.1,3.1s3.1-1.2,3.1-3.1h0.4
		c0,2.3,1.2,3.1,3.1,3.1v0.4c-2.3,0-3.1,1.2-3.1,3.1c0,2.3,1.2,3.1,3.1,3.1s3.1-1.2,3.1-3.1h0.4c0,2.3,1.2,3.1,3.1,3.1
		c1.9,0,3.1-1.2,3.1-3.1h0.4c0,2.3,1.2,3.1,3.1,3.1c2.3,0,3.1-1.2,3.1-3.1h0.4c0,2.3,1.2,3.1,3.1,3.1c2.3,0,3.1-1.2,3.1-3.1h0.4
		c0,2.3,1.2,3.1,3.1,3.1c2.3,0,3.1-1.2,3.1-3.1C283.4,351.9,282.6,350.8,280.3,350.8"/>
	<path class="st0" d="M286.9,344.2L286.9,344.2c-2.3,0-3.1,1.2-3.1,3.1h-0.4c0-2.3-1.2-3.1-3.1-3.1c-2.3,0-3.1,1.2-3.1,3.1l0,0
		c0,2.3,1.2,3.1,3.1,3.1l0,0c2.3,0,3.1-1.2,3.1-3.1h0.4c0,2.3,1.2,3.1,3.1,3.1c2.3,0,3.1-1.2,3.1-3.1
		C290,345.3,289.2,344.2,286.9,344.2 M290,340.7c0-2.3-1.2-3.1-3.1-3.1l0,0c-2.3,0-3.1,1.2-3.1,3.1l0,0c0,2.3,1.2,3.1,3.1,3.1l0,0
		C289.2,344.2,290,343,290,340.7 M283.8,334.1c0,2.3,1.2,3.1,3.1,3.1l0,0c2.3,0,3.1-1.2,3.1-3.1c0-1.9-1.2-3.1-3.1-3.1
		C284.9,331,283.8,332.2,283.8,334.1L283.8,334.1z M286.9,324.5L286.9,324.5c-2.3,0-3.1,1.2-3.1,3.1l0,0c0,2.3,1.2,3.1,3.1,3.1l0,0
		c2.3,0,3.1-1.2,3.1-3.1C290,325.6,289.2,324.5,286.9,324.5 M286.9,317.9L286.9,317.9c-2.3,0-3.1,1.2-3.1,3.1l0,0
		c0,2.3,1.2,3.1,3.1,3.1l0,0c2.3,0,3.1-1.2,3.1-3.1C290,318.7,289.2,317.9,286.9,317.9 M286.9,311.3c-2.3,0-3.1,1.2-3.1,3.1l0,0
		c0,2.3,1.2,3.1,3.1,3.1c1.9,0,3.1-1.2,3.1-3.1C290,312.1,289.2,311.3,286.9,311.3 M286.9,304.8L286.9,304.8c-2.3,0-3.1,1.2-3.1,3.1
		c0,2.3,1.2,3.1,3.1,3.1c2.3,0,3.1-1.2,3.1-3.1C290,305.5,289.2,304.8,286.9,304.8 M341,304.4L341,304.4L341,304.4
		c2.3,0,3.1-1.2,3.1-3.1c0-2.3-1.2-3.1-3.1-3.1c-2.3,0-3.1,1.2-3.1,3.1l0,0C337.9,303.2,338.6,304.4,341,304.4 M314.7,304.8
		c-1.2,0-1.9,0.4-2.3,0.8c-0.4,0.4-0.8,1.2-0.8,2.3c0,2.3,1.2,3.1,3.1,3.1c2.3,0,3.1-1.2,3.1-3.1
		C317.8,305.5,316.6,304.8,314.7,304.8 M308.1,317.9c-2.3,0-3.1,1.2-3.1,3.1l0,0c0,2.3,1.2,3.1,3.1,3.1c2.3,0,3.1-1.2,3.1-3.1l0,0
		l0,0C311.2,318.7,310.1,317.9,308.1,317.9 M308.1,324.5c-2.3,0-3.1,1.2-3.1,3.1l0,0c0,2.3,1.2,3.1,3.1,3.1c2.3,0,3.1-1.2,3.1-3.1
		l0,0l0,0C311.2,325.6,310.1,324.5,308.1,324.5 M308.1,331c-2.3,0-3.1,1.2-3.1,3.1c0,2.3,1.2,3.1,3.1,3.1c2.3,0,3.1-1.2,3.1-3.1l0,0
		l0,0C311.2,332.2,310.1,331,308.1,331 M308.1,337.6c-2.3,0-3.1,1.2-3.1,3.1l0,0c0,2.3,1.2,3.1,3.1,3.1l0,0l0,0
		c1.9,0,3.1-1.2,3.1-3.1l0,0l0,0C311.2,338.8,310.1,337.6,308.1,337.6 M308.1,344.2L308.1,344.2c-2.3,0-3.1,1.2-3.1,3.1l0,0
		c0,2.3,1.2,3.1,3.1,3.1c2.3,0,3.1-1.2,3.1-3.1l0,0l0,0C311.2,345.3,310.1,344.2,308.1,344.2 M308.1,311.3c-1.9,0-3.1,1.2-3.1,3.1
		l0,0c0,1.9,1.2,3.1,3.1,3.1c2.3,0,3.1-1.2,3.1-3.1l0,0C311.2,312.1,310.1,311.3,308.1,311.3 M308.1,304.8c-2.3,0-3.1,1.2-3.1,3.1
		l0,0c0,2.3,1.2,3.1,3.1,3.1c2.3,0,3.1-1.2,3.1-3.1C311.2,305.5,310.1,304.8,308.1,304.8 M308.1,297.8c-2.3,0-3.1,1.2-3.1,3.1
		c0,2.3,1.2,3.1,3.1,3.1c2.3,0,3.1-1.2,3.1-3.1l0,0l0,0C311.2,299,310.1,297.8,308.1,297.8 M334.4,304.4L334.4,304.4
		c2.3,0,3.1-1.2,3.1-3.1l0,0c0-2.3-1.2-3.5-3.1-3.5c-1.9,0-3.1,1.2-3.1,3.1C331.3,302.8,332.1,304.4,334.4,304.4 M334.4,311
		c2.3,0,3.1-1.2,3.1-3.1l0,0c0-1.9-1.2-3.1-3.1-3.1l0,0l0,0c-2.3,0-3.1,1.2-3.1,3.1C331.3,309.8,332.1,311,334.4,311 M334.4,317.9
		c-2.3,0-3.1,1.2-3.1,3.1c0,1.9,1.2,3.1,3.1,3.1c2.3,0,3.1-1.2,3.1-3.1C337.5,319.1,336.3,317.9,334.4,317.9 M334.4,324.5
		c-2.3,0-3.1,1.2-3.1,3.1c0,2.3,1.2,3.1,3.1,3.1c2.3,0,3.1-1.2,3.1-3.1C337.5,325.6,336.3,324.5,334.4,324.5 M337.5,334.1
		c0-2.3-1.2-3.1-3.1-3.1c-2.3,0-3.1,1.2-3.1,3.1c0,2.3,1.2,3.1,3.1,3.1C336.3,337.2,337.5,336.5,337.5,334.1L337.5,334.1z
		 M337.5,340.7c0-2.3-1.2-3.1-3.1-3.1c-2.3,0-3.1,1.2-3.1,3.1c0,2.3,1.2,3.1,3.1,3.1l0,0l0,0C336.3,344.2,337.5,343,337.5,340.7
		L337.5,340.7z M334.4,344.2L334.4,344.2c-2.3,0-3.1,1.2-3.1,3.1c0,2.3,1.2,3.1,3.1,3.1c2.3,0,3.1-1.2,3.1-3.1l0,0
		C337.5,345.3,336.3,344.2,334.4,344.2 M327.8,324.1c2.3,0,3.1-1.2,3.1-3.1c0-2.3-1.2-3.1-3.1-3.1c-2.3,0-3.1,1.2-3.1,3.1
		C324.7,323.3,325.5,324.1,327.8,324.1 M318.2,321L318.2,321c0,2.3,1.2,3.1,3.1,3.1c2.3,0,3.1-1.2,3.1-3.1c0-2.3-1.2-3.1-3.1-3.1
		C318.9,317.9,318.2,318.7,318.2,321 M321.3,311.3c-2.3,0-3.1,1.2-3.1,3.1c0,2.3,1.2,3.1,3.1,3.1c2.3,0,3.1-1.2,3.1-3.1
		C324.4,312.1,323.2,311.3,321.3,311.3 M327.8,317.5c2.3,0,3.1-1.2,3.1-3.1c0-1.9-1.2-3.1-3.1-3.1c-2.3,0-3.1,1.2-3.1,3.1l0,0
		C324.7,316.4,325.5,317.5,327.8,317.5 M321.3,297.8L321.3,297.8L321.3,297.8c2.3,0,3.1-1.2,3.1-3.1c0-2.3-1.2-3.1-3.1-3.1
		c-2.3,0-3.1,1.2-3.1,3.1l0,0C318.2,296.7,318.9,297.8,321.3,297.8 M327.8,297.8L327.8,297.8c2.3,0,3.1-1.2,3.1-3.1l0,0
		c0-2.3-1.2-3.1-3.1-3.1c-2.3,0-3.1,1.2-3.1,3.1l0,0C324.7,296.7,325.5,297.8,327.8,297.8 M318.2,301.3c0,2.3,1.2,3.1,3.1,3.1
		c2.3,0,3.1-1.2,3.1-3.1c0-2.3-1.2-3.1-3.1-3.1l0,0C318.9,297.8,318.2,299,318.2,301.3L318.2,301.3z M327.8,304.4
		c2.3,0,3.1-1.2,3.1-3.1c0-2.3-1.2-3.5-3.1-3.5l0,0c-1.9,0-3.1,1.2-3.1,3.1C324.7,303.2,325.5,304.4,327.8,304.4 M330.9,307.9
		L330.9,307.9c0-2.3-1.2-3.1-3.1-3.1c-2.3,0-3.1,1.2-3.1,3.1c0,2.3,1.2,3.1,3.1,3.1C329.8,311,330.9,309.8,330.9,307.9 M334.4,311.3
		c-2.3,0-3.1,1.2-3.1,3.1c0,2.3,1.2,3.1,3.1,3.1c2.3,0,3.1-1.2,3.1-3.1C337.5,312.5,336.3,311.3,334.4,311.3 M341,297.8
		c2.3,0,3.1-1.2,3.1-3.1c0-2.3-1.2-3.1-3.1-3.1c-2.3,0-3.1,1.2-3.1,3.1l0,0C337.9,296.7,338.6,297.8,341,297.8 M334.4,291.2
		c-2.3,0-3.1,1.2-3.1,3.1c0,2.3,1.2,3.1,3.1,3.1c1.9,0.4,3.1-0.8,3.1-2.7l0,0C337.5,292.4,336.3,291.2,334.4,291.2"/>
	<path class="st0" d="M305,294.7c0,2.3,1.2,3.1,3.1,3.1c2.3,0,3.1-1.2,3.1-3.1c0-2.3-1.2-3.1-3.1-3.1v-0.4c2.3,0,3.1-1.2,3.1-3.1
		h0.4c0,2.3,1.2,3.1,3.1,3.1v0.4c-1.9,0-3.1,1.2-3.1,3.1l0,0c0,1.9,1.2,3.1,3.1,3.1l0,0c-2.3,0-3.1,1.2-3.1,3.1l0,0l0,0
		c0,2.3,1.2,3.1,3.1,3.1c2.3,0,3.1-1.2,3.1-3.1l0,0c0-2.3-1.2-3.1-3.1-3.1l0,0c2.3,0,3.1-1.2,3.1-3.1c0-2.3-1.2-3.1-3.1-3.1v-0.4
		c2.3,0,3.1-1.2,3.1-3.1h0.4c0,2.3,1.2,3.1,3.1,3.1c2.3,0,3.1-1.2,3.1-3.1h0.4c0,2.3,1.2,3.1,3.1,3.1c2.3,0,3.1-1.2,3.1-3.1h0.4
		c0,2.3,1.2,3.1,3.1,3.1c1.9,0,3.1-1.2,3.1-3.5s-1.2-3.1-3.1-3.1c-2.3,0-3.1,1.2-3.1,3.1h-0.4c0-2.3-1.2-3.1-3.1-3.1
		c-2.3,0-3.1,1.2-3.1,3.1h-0.4c0-2.3-1.2-3.1-3.1-3.1c-2.3,0-3.1,1.2-3.1,3.1h-0.4c0-2.3-1.2-3.1-3.1-3.1c-2.3,0-3.1,1.2-3.1,3.1
		h-0.4c0-2.3-1.2-3.1-3.1-3.1c-2.3,0-3.1,1.2-3.1,3.1c0,2.3,1.2,3.1,3.1,3.1v0.4C305.8,291.2,305,292.4,305,294.7"/>
	<path class="st0" d="M314.7,350.8L314.7,350.8c-2.3,0-3.1,1.2-3.1,3.1h-0.4c0-2.3-1.2-3.1-3.1-3.1c-2.3,0-3.1,1.2-3.1,3.1h-0.4
		c0-2.3-1.2-3.1-3.1-3.1v-0.4c2.3,0,3.1-1.2,3.1-3.1c0-1.9-1.2-3.1-3.1-3.1l0,0c2.3,0,3.1-1.2,3.1-3.1c0-1.9-1.2-3.1-3.1-3.1v-0.4
		c2.3,0,3.1-1.2,3.1-3.1c0-1.9-1.2-3.1-3.1-3.1V331c2.3,0,3.1-1.2,3.1-3.1c0-2.3-1.2-3.1-3.1-3.1v-0.4c2.3,0,3.1-1.2,3.1-3.1
		c0-2.3-1.2-3.1-3.1-3.1v-0.4c2.3,0,3.1-1.2,3.1-3.1c0-1.9-1.2-3.1-3.1-3.1V311c2.3,0,3.1-1.2,3.1-3.1c0-2.3-1.2-3.1-3.1-3.1v-0.4
		c2.3,0,3.1-1.2,3.1-3.1c0-1.9-1.2-3.5-3.1-3.5l0,0c2.3,0,3.1-1.2,3.1-3.1l0,0c0-2.3-1.2-3.1-3.1-3.1c-2.3,0-3.1,1.2-3.1,3.1
		c0,1.9,0.8,3.1,3.1,3.1l0,0c-2.3,0-3.1,1.2-3.1,3.1c0,1.9,1.2,3.1,3.1,3.1v0.4c-2.3,0-3.1,1.2-3.1,3.1c0,2.3,1.2,3.1,3.1,3.1v0.4
		c-2.3,0-3.1,1.2-3.1,3.1c0,2.3,1.2,3.1,3.1,3.1v0.4c-2.3,0-3.1,1.2-3.1,3.1c0,2.3,1.2,3.1,3.1,3.1v0.4c-2.3,0-3.1,1.2-3.1,3.1
		c0,1.9,1.2,3.1,3.1,3.1v0.4c-2.3,0-3.1,1.2-3.1,3.1c0,1.9,1.2,3.1,3.1,3.1v0.4c-2.3,0-3.1,1.2-3.1,3.1c0,1.9,1.2,3.1,3.1,3.1v0.8
		c-2.3,0-3.1,1.2-3.1,3.1c0,1.9,1.2,3.1,3.1,3.1v0.4c-2.3,0-3.1,1.2-3.1,3.1c0,2.3,1.2,3.1,3.1,3.1c2.3,0,3.1-1.2,3.1-3.1h0.4
		c0,2.3,1.2,3.1,3.1,3.1c2.3,0,3.1-1.2,3.1-3.1h0.4c0,2.3,1.2,3.1,3.1,3.1c2.3,0,3.1-1.2,3.1-3.1
		C317.8,351.9,316.6,350.8,314.7,350.8"/>
	<path class="st0" d="M314.7,344.2L314.7,344.2c-1.9,0-3.1,1.2-3.1,3.1l0,0c0,1.9,1.2,3.1,3.1,3.1l0,0c2.3,0,3.1-1.2,3.1-3.1
		C317.8,345.3,316.6,344.2,314.7,344.2 M314.7,337.6L314.7,337.6c-1.9,0-3.1,1.2-3.1,3.1l0,0c0,1.9,1.2,3.1,3.1,3.1l0,0
		c2.3,0,3.1-1.2,3.1-3.1C317.8,338.8,316.6,337.6,314.7,337.6 M314.7,331L314.7,331c-1.9,0-3.1,1.2-3.1,3.1l0,0
		c0,1.9,1.2,3.1,3.1,3.1l0,0c2.3,0,3.1-1.2,3.1-3.1C317.8,332.2,316.6,331,314.7,331"/>
	<path class="st0" d="M341,350.8L341,350.8c-2.3,0-3.1,1.2-3.1,3.1h-0.4c0-2.3-1.2-3.1-3.1-3.1c-2.3,0-3.1,1.2-3.1,3.1h-0.4
		c0-2.3-1.2-3.1-3.1-3.1v-0.4c1.9,0,3.1-1.2,3.1-3.1l0,0c0-1.9-1.2-3.1-3.1-3.1l0,0c1.9,0,3.1-1.2,3.1-3.1l0,0
		c0-1.9-1.2-3.1-3.1-3.1v-0.4c2.3,0,3.1-1.2,3.1-3.1c0-1.9-1.2-3.1-3.1-3.1V331c1.9,0,3.1-1.2,3.1-3.1l0,0c0-1.9-1.2-3.1-3.1-3.1
		c-2.3,0-3.1,1.2-3.1,3.1h-0.4c0-2.3-1.2-3.1-3.1-3.1c-2.3,0-3.1,1.2-3.1,3.1h-0.4c0-2.3-1.2-3.1-3.1-3.1v-0.4
		c2.3,0,3.1-1.2,3.1-3.1c0-2.3-1.2-3.1-3.1-3.1v-0.4c2.3,0,3.1-1.2,3.1-3.1c0-2.3-1.2-3.1-3.1-3.1c-1.2,0-1.9,0.4-2.3,0.8
		c-0.4,0.4-0.8,1.2-0.8,2.3l0,0c0,2.3,1.2,3.1,3.1,3.1v0.4c-2.3,0-3.1,1.2-3.1,3.1l0,0c0,2.3,1.2,3.1,3.1,3.1v0.4
		c-2.3,0-3.1,1.2-3.1,3.1l0,0c0,2.3,1.2,3.1,3.1,3.1l0,0c2.3,0,3.1-1.2,3.1-3.1h0.4c0,2.3,1.2,3.1,3.1,3.1c2.3,0,3.1-1.2,3.1-3.1
		h0.4c0,2.3,1.2,3.1,3.1,3.1v0.4c-2.3,0-3.1,1.2-3.1,3.1c0,1.9,1.2,3.1,3.1,3.1v0.4c-2.3,0-3.1,1.2-3.1,3.1c0,1.9,1.2,3.1,3.1,3.1
		l0,0c-2.3,0-3.1,1.2-3.1,3.1c0,1.9,1.2,3.1,3.1,3.1v0.4c-2.3,0-3.1,1.2-3.1,3.1c0,2.3,1.2,3.1,3.1,3.1c2.3,0,3.1-1.2,3.1-3.1h0.4
		c0,2.3,1.2,3.1,3.1,3.1c2.3,0,3.1-1.2,3.1-3.1h0.4c0,2.3,1.2,3.1,3.1,3.1c2.3,0,3.1-1.2,3.1-3.1C344.1,351.9,342.9,350.8,341,350.8
		"/>
	<path class="st0" d="M341,344.2L341,344.2c-2.3,0-3.1,1.2-3.1,3.1c0,2.3,1.2,3.1,3.1,3.1l0,0c2.3,0,3.1-1.2,3.1-3.1
		C344.1,345.3,342.9,344.2,341,344.2 M341,337.6L341,337.6c-2.3,0-3.1,1.2-3.1,3.1c0,1.9,1.2,3.1,3.1,3.1l0,0c2.3,0,3.1-1.2,3.1-3.1
		C344.1,338.8,342.9,337.6,341,337.6 M341,331L341,331c-2.3,0-3.1,1.2-3.1,3.1c0,1.9,1.2,3.1,3.1,3.1l0,0c2.3,0,3.1-1.2,3.1-3.1
		C344.1,332.2,342.9,331,341,331 M341,324.5L341,324.5c-2.3,0-3.1,1.2-3.1,3.1c0,1.9,1.2,3.1,3.1,3.1l0,0c2.3,0,3.1-1.2,3.1-3.1
		C344.1,325.6,342.9,324.5,341,324.5 M341,317.9L341,317.9c-2.3,0-3.1,1.2-3.1,3.1c0,1.9,1.2,3.1,3.1,3.1l0,0c2.3,0,3.1-1.2,3.1-3.1
		C344.1,318.7,342.9,317.9,341,317.9 M341,311.3c-2.3,0-3.1,1.2-3.1,3.1c0,2.3,1.2,3.1,3.1,3.1l0,0c2.3,0,3.1-1.2,3.1-3.1
		C344.1,312.1,342.9,311.3,341,311.3 M341,304.8L341,304.8c-2.3,0-3.1,1.2-3.1,3.1c0,2.3,1.2,3.1,3.1,3.1c2.3,0,3.1-1.2,3.1-3.1
		C344.1,305.5,342.9,304.8,341,304.8 M394.7,304.4L394.7,304.4L394.7,304.4c2.3,0,3.1-1.2,3.1-3.1c0-2.3-1.2-3.1-3.1-3.1
		c-1.9-0.4-3.1,0.8-3.1,3.1l0,0C391.6,303.2,392.7,304.4,394.7,304.4 M388.1,311c2.3,0,3.1-1.2,3.1-3.1l0,0c0-1.9-1.2-3.1-3.1-3.1
		l0,0l0,0c-2.3,0-3.1,1.2-3.1,3.1C385,309.8,386.2,311,388.1,311 M381.5,291.2c-2.3,0-3.1,1.2-3.1,3.1l0,0c0,1.9,1.2,3.1,3.1,3.1
		l0,0c2.3,0,3.1-1.2,3.1-3.1l0,0C385,292.4,383.9,291.2,381.5,291.2 M375,291.2c-2.3,0-3.1,1.2-3.1,3.1l0,0c0,2.3,1.2,3.1,3.1,3.1
		l0,0c2.3,0,3.1-1.2,3.1-3.1l0,0C378.4,292.4,377.3,291.2,375,291.2 M368.4,297.8L368.4,297.8c2.3,0,3.1-1.2,3.1-3.1
		c0-2.3-1.2-3.1-3.1-3.1c-2.3,0-3.1,1.2-3.1,3.1l0,0C365.3,296.7,366.5,297.8,368.4,297.8 M368.8,344.2L368.8,344.2L368.8,344.2
		c-2.3,0-3.1,1.2-3.1,3.1c0,2.3,1.2,3.1,3.1,3.1c2.3,0,3.1-1.2,3.1-3.1l0,0C371.9,345.3,370.7,344.2,368.8,344.2 M371.9,347.3
		c0,2.3,1.2,3.1,3.1,3.1c2.3,0,3.1-1.2,3.1-3.1c0-1.9-1.2-3.1-3.1-3.1l0,0l0,0C373,344.2,371.9,345.3,371.9,347.3L371.9,347.3z
		 M385,347.3c0-1.9-1.2-3.1-3.1-3.1l0,0c-2.3,0-3.1,1.2-3.1,3.1l0,0c0,2.3,1.2,3.1,3.1,3.1C383.9,350.8,385,349.6,385,347.3
		L385,347.3z M385,340.7c0,1.9,1.2,3.1,3.1,3.1c2.3,0,3.1-1.2,3.1-3.1c0-1.9-1.2-3.1-3.1-3.1S385,338.8,385,340.7L385,340.7z
		 M388.1,331c-2.3,0-3.1,1.2-3.1,3.1l0,0c0,2.3,1.2,3.1,3.1,3.1c2.3,0,3.1-1.2,3.1-3.1l0,0C391.6,332.2,390.4,331,388.1,331
		 M361.8,297.8c-2.3,0-3.1,1.2-3.1,3.1c0,2.3,1.2,3.1,3.1,3.1l0,0c1.9,0,3.1-1.2,3.1-3.1l0,0C365.3,299,364.2,297.8,361.8,297.8
		 M362.2,304.8L362.2,304.8c-2.3,0-3.1,1.2-3.1,3.1c0,2.3,1.2,3.1,3.1,3.1c1.9,0,3.1-1.2,3.1-3.1l0,0
		C365.3,305.5,364.2,304.8,362.2,304.8 M361.8,311.3c-2.3,0-3.1,1.2-3.1,3.1c0,2.3,1.2,3.1,3.1,3.1c1.9,0,3.1-1.2,3.1-3.1l0,0
		C365.3,312.1,364.2,311.3,361.8,311.3 M361.8,317.9c-2.3,0-3.1,1.2-3.1,3.1c0,1.9,1.2,3.1,3.1,3.1c1.9,0,3.1-1.2,3.1-3.1l0,0
		C365.3,318.7,364.2,317.9,361.8,317.9 M361.8,324.5c-2.3,0-3.1,1.2-3.1,3.1c0,2.3,1.2,3.1,3.1,3.1c1.9,0,3.1-1.2,3.1-3.1l0,0
		C365.3,325.6,364.2,324.5,361.8,324.5 M365.3,334.1c0-1.9-1.2-3.1-3.1-3.1c-2.3,0-3.1,1.2-3.1,3.1c0,2.3,1.2,3.1,3.1,3.1
		C364.2,337.2,365.3,336.5,365.3,334.1L365.3,334.1z M358.7,340.7L358.7,340.7c0,2.3,1.2,3.1,3.1,3.1c1.9,0,3.1-1.2,3.1-3.1l0,0
		c0-2.3-1.2-3.1-3.1-3.1C359.9,337.6,358.7,338.8,358.7,340.7 M388.1,304.4L388.1,304.4c2.3,0,3.1-1.2,3.1-3.1l0,0
		c0.4-2.3-0.8-3.5-3.1-3.5s-3.1,1.2-3.1,3.1C385,302.8,386.2,304.4,388.1,304.4 M394.7,297.8c2.3,0,3.1-1.2,3.1-3.1
		c0-2.3-1.2-3.1-3.1-3.1c-1.9,0-3.1,0.8-3.1,3.1l0,0C391.6,296.7,392.7,297.8,394.7,297.8 M388.1,291.2L388.1,291.2
		c-2.3,0-3.1,1.2-3.1,3.1l0,0c0,1.9,1.2,3.1,3.1,3.1c2.3,0.4,3.5-0.8,3.5-2.7l0,0C391.6,292.4,390.4,291.2,388.1,291.2"/>
	<path class="st0" d="M358.7,294.7L358.7,294.7c0,2.3,1.2,3.1,3.1,3.1c2.3,0,3.1-1.2,3.1-3.1c0-2.3-1.2-3.1-3.1-3.1v-0.4
		c2.3,0,3.1-1.2,3.1-3.1h0.4c0,2.3,1.2,3.1,3.1,3.1c2.3,0,3.1-1.2,3.1-3.1h0.4c0,2.3,1.2,3.1,3.1,3.1c2.3,0,3.1-1.2,3.1-3.1h0.4
		c0,2.3,1.2,3.1,3.1,3.1c2.3,0,3.1-1.2,3.1-3.1h0.4c0,2.3,1.2,3.1,3.1,3.1l0,0c2.3,0,3.5-1.2,3.5-3.5s-1.2-3.1-3.1-3.1
		c-2.3,0-3.1,1.2-3.1,3.1H385c0-2.3-1.2-3.1-3.1-3.1c-2.3,0-3.1,1.2-3.1,3.1h-0.4c0-2.3-1.2-3.1-3.1-3.1c-2.3,0-3.1,1.2-3.1,3.1
		h-0.4c0-2.3-1.2-3.1-3.1-3.1c-2.3,0-3.1,1.2-3.1,3.1h-0.4c0-2.3-1.2-3.1-3.1-3.1c-2.3,0-3.1,1.2-3.1,3.1c0,2.3,1.2,3.1,3.1,3.1v0.4
		C359.9,291.2,358.7,292.4,358.7,294.7"/>
	<path class="st0" d="M388.1,350.8L388.1,350.8c-2.3,0-3.1,1.2-3.1,3.1h-0.4c0-2.3-1.2-3.1-3.1-3.1c-2.3,0-3.1,1.2-3.1,3.1h-0.4
		c0-2.3-1.2-3.1-3.1-3.1c-2.3,0-3.1,1.2-3.1,3.1h-0.4c0-2.3-1.2-3.1-3.1-3.1c-2.3,0-3.1,1.2-3.1,3.1h-0.4c0-2.3-1.2-3.1-3.1-3.1
		v-0.4c2.3,0,3.1-1.2,3.1-3.1c0-2.3-1.2-3.1-3.1-3.1c-2.3,0-3.1,1.2-3.1,3.1h-0.4c0-2.3-1.2-3.1-3.1-3.1l0,0c2.3,0,3.1-1.2,3.1-3.1
		c0-2.3-1.2-3.1-3.1-3.1v-0.4c2.3,0,3.1-1.2,3.1-3.1c0-2.3-1.2-3.1-3.1-3.1V331c2.3,0,3.1-1.2,3.1-3.1c0-1.9-1.2-3.1-3.1-3.1v-0.4
		c2.3,0,3.1-1.2,3.1-3.1c0-2.3-1.2-3.1-3.1-3.1v-0.4c2.3,0,3.1-1.2,3.1-3.1c0-2.3-1.2-3.1-3.1-3.1V311c2.3,0,3.1-1.2,3.1-3.1
		c0-2.3-1.2-3.1-3.1-3.1v-0.4c2.3,0,3.1-1.2,3.1-3.1c0-2.3-1.2-3.1-3.1-3.1v-0.4c2.3,0,3.1-1.2,3.1-3.1l0,0c0-2.3-1.2-3.1-3.1-3.1
		c-2.3,0-3.1,1.2-3.1,3.1c0,2.3,1.2,3.1,3.1,3.1l0,0c-2.3,0-3.1,1.2-3.1,3.1c0,2.3,1.2,3.1,3.1,3.1v0.4c-2.3,0-3.1,1.2-3.1,3.1
		c0,2.3,1.2,3.1,3.1,3.1v0.4c-2.3,0-3.1,1.2-3.1,3.1c0,2.3,1.2,3.1,3.1,3.1v0.4c-2.3,0-3.1,1.2-3.1,3.1c0,2.3,1.2,3.1,3.1,3.1v0.4
		c-2.3,0-3.1,1.2-3.1,3.1c0,2.3,1.2,3.1,3.1,3.1v0.4c-2.3,0-3.1,1.2-3.1,3.1c0,2.3,1.2,3.1,3.1,3.1v0.4c-2.3,0-3.1,1.2-3.1,3.1
		c0,2.3,1.2,3.1,3.1,3.1v0.8c-2.3,0-3.1,1.2-3.1,3.1c0,1.9,1.2,3.1,3.1,3.1c2.3,0,3.1-1.2,3.1-3.1h0.4c0,2.3,1.2,3.1,3.1,3.1v0.4
		c-2.3,0-3.1,1.2-3.1,3.1c0,2.3,1.2,3.1,3.1,3.1c2.3,0,3.1-1.2,3.1-3.1h0.4c0,2.3,1.2,3.1,3.1,3.1c2.3,0,3.1-1.2,3.1-3.1h0.4
		c0,2.3,1.2,3.1,3.1,3.1c2.3,0,3.1-1.2,3.1-3.1h0.4c0,2.3,1.2,3.1,3.1,3.1c2.3,0,3.1-1.2,3.1-3.1h0.4c0,2.3,1.2,3.1,3.1,3.1
		c2.3,0,3.1-1.2,3.1-3.1C391.6,351.9,390.4,350.8,388.1,350.8"/>
	<path class="st0" d="M394.7,344.2L394.7,344.2c-2.3,0-3.1,1.2-3.1,3.1l0,0c0-2.3-1.2-3.1-3.1-3.1c-2.3,0-3.1,1.2-3.1,3.1l0,0
		c0,1.9,1.2,3.1,3.1,3.1l0,0c2.3,0,3.1-1.2,3.1-3.1l0,0c0,2.3,1.2,3.1,3.1,3.1c2.3,0,3.1-1.2,3.1-3.1
		C397.8,345.3,397,344.2,394.7,344.2 M394.7,337.6L394.7,337.6c-2.3,0-3.1,1.2-3.1,3.1l0,0c0,2.3,1.2,3.1,3.1,3.1l0,0
		c2.3,0,3.1-1.2,3.1-3.1C398.2,338.8,397,337.6,394.7,337.6 M394.7,331L394.7,331c-2.3,0-3.1,1.2-3.1,3.1l0,0c0,2.3,1.2,3.1,3.1,3.1
		l0,0c2.3,0,3.1-1.2,3.1-3.1C398.2,332.2,397,331,394.7,331 M394.7,324.5c-2.3,0-3.1,1.2-3.1,3.1l0,0c0,2.3,1.2,3.1,3.1,3.1l0,0
		c2.3,0,3.1-1.2,3.1-3.1C398.2,325.6,397,324.5,394.7,324.5 M388.1,330.7c1.9,0,3.1-1.2,3.1-3.1l0,0c0-1.9-1.2-3.1-3.1-3.1
		c-2.3,0-3.1,1.2-3.1,3.1l0,0C385,329.9,386.2,330.7,388.1,330.7 M381.5,330.7L381.5,330.7c1.9,0,3.1-1.2,3.1-3.1l0,0
		c0-1.9-1.2-3.1-3.1-3.1c-2.3,0-3.1,1.2-3.1,3.1C378.4,329.9,379.6,330.7,381.5,330.7 M381.5,331L381.5,331c-2.3,0-3.1,1.2-3.1,3.1
		c0,1.9,1.2,3.1,3.1,3.1l0,0c2.3,0,3.1-1.2,3.1-3.1l0,0C385,332.2,383.9,331,381.5,331 M385,340.7c0-2.3-1.2-3.1-3.1-3.1
		c-2.3,0-3.1,1.2-3.1,3.1l0,0c0,2.3,1.2,3.1,3.1,3.1l0,0l0,0C383.9,344.2,385,343,385,340.7L385,340.7z M378.4,340.7L378.4,340.7
		c0-2.3-1.2-3.1-3.1-3.1c-1.9,0-3.1,1.2-3.1,3.1l0,0c0,2.3,1.2,3.1,3.1,3.1l0,0C377.3,343.8,378.4,343,378.4,340.7L378.4,340.7z
		 M371.9,340.7c0-2.3-1.2-3.1-3.1-3.1l0,0c-2.3,0-3.1,1.2-3.1,3.1c0,1.9,1.2,3.1,3.1,3.1l0,0C370.7,344.2,371.9,343,371.9,340.7z
		 M371.9,334.1c0-2.3-1.2-3.1-3.1-3.1l0,0c-2.3,0-3.1,1.2-3.1,3.1l0,0c0,2.3,1.2,3.1,3.1,3.1l0,0
		C370.7,337.2,371.9,336.5,371.9,334.1 M368.4,324.5L368.4,324.5c-2.3,0-3.1,1.2-3.1,3.1l0,0c0,2.3,1.2,3.1,3.1,3.1l0,0
		c2.3,0,3.1-1.2,3.1-3.1C371.9,325.6,370.7,324.5,368.4,324.5 M368.4,317.9L368.4,317.9c-2.3,0-3.1,1.2-3.1,3.1l0,0
		c0,2.3,1.2,3.1,3.1,3.1l0,0c2.3,0,3.1-1.2,3.1-3.1C371.9,318.7,370.7,317.9,368.4,317.9 M368.4,317.5L368.4,317.5
		c2.3,0,3.1-1.2,3.1-3.1c0-2.3-1.2-3.1-3.1-3.1c-2.3,0-3.1,1.2-3.1,3.1l0,0C365.3,316.4,366.5,317.5,368.4,317.5 M368.4,304.8
		L368.4,304.8c-2.3,0-3.1,1.2-3.1,3.1l0,0c0,2.3,1.2,3.1,3.1,3.1c2.3,0,3.1-1.2,3.1-3.1C371.9,305.5,370.7,304.8,368.4,304.8
		 M368.4,304.4L368.4,304.4c2.3,0,3.1-1.2,3.1-3.1l0,0c0.4-2.3-0.8-3.5-3.1-3.5l0,0c-2.3,0-3.1,1.2-3.1,3.1l0,0
		C365.3,303.2,366.5,304.4,368.4,304.4 M375,304.4c2.3,0,3.1-1.2,3.1-3.1l0,0c0-2.3-1.2-3.1-3.1-3.1l0,0c-2.3,0-3.1,1.2-3.1,3.1l0,0
		C371.9,303.2,373,304.4,375,304.4 M381.5,304.4L381.5,304.4c2.3,0,3.1-1.2,3.1-3.1c0.4-2.3-0.8-3.5-3.1-3.5l0,0
		c-2.3,0-3.1,1.2-3.1,3.1l0,0C378.4,303.2,379.6,304.4,381.5,304.4 M381.5,311c2.3,0,3.1-1.2,3.1-3.1c0-1.9-0.8-3.1-3.1-3.1l0,0l0,0
		c-2.3,0-3.1,1.2-3.1,3.1C378.4,309.8,379.6,311,381.5,311 M388.1,317.5c2.3,0,3.1-1.2,3.1-3.1c0-2.3-1.2-3.1-3.1-3.1
		c-2.3,0-3.1,1.2-3.1,3.1h-0.4c0-2.3-1.2-3.1-3.1-3.1c-2.3,0-3.1,1.2-3.1,3.1c0,2.3,1.2,3.1,3.1,3.1c2.3,0,3.1-1.2,3.1-3.1h0.4
		C385,316.4,386.2,317.5,388.1,317.5 M394.7,311.3L394.7,311.3c-2.3,0-3.1,1.2-3.1,3.1c0,2.3,1.2,3.1,3.1,3.1c2.3,0,3.1-1.2,3.1-3.1
		C398.2,312.1,397,311.3,394.7,311.3 M394.7,304.8L394.7,304.8c-1.9,0-3.1,0.8-3.1,3.1l0,0c0,1.9,1.2,3.1,3.1,3.1l0,0
		c1.9,0,3.1-1.2,3.1-3.1C398.2,305.5,397,304.8,394.7,304.8 M435.6,324.1c2.3,0,3.1-1.2,3.1-3.1l0,0l0,0c0-1.9-1.2-3.1-3.1-3.1l0,0
		c-1.9,0-3.1,1.2-3.1,3.1l0,0C432.5,323.3,433.7,324.1,435.6,324.1 M439.1,307.9c0,2.3,1.2,3.1,3.1,3.1c2.3,0,3.1-1.2,3.1-3.1
		c0-1.9-1.2-3.1-3.1-3.1S439.1,305.5,439.1,307.9L439.1,307.9z M442.2,291.2L442.2,291.2c-2.3,0-3.1,1.2-3.1,3.1l0,0
		c0,2.3,1.2,3.1,3.1,3.1l0,0c1.9,0,3.1-1.2,3.1-3.1l0,0C445.3,292.4,444.5,291.2,442.2,291.2 M442.2,297.8L442.2,297.8
		c-2.3,0-3.1,1.2-3.1,3.1c0,2.3,1.2,3.1,3.1,3.1c2.3,0,3.1-1.2,3.1-3.1l0,0C445.3,299,444.5,297.8,442.2,297.8 M445.3,334.1
		L445.3,334.1c0-2.3-1.2-3.1-3.1-3.1l0,0c-1.9,0-3.1,1.2-3.1,3.1c0,2.3,1.2,3.1,3.1,3.1C444.5,337.2,445.3,336.5,445.3,334.1
		 M442.2,344.2L442.2,344.2L442.2,344.2c2.3,0,3.1-1.2,3.1-3.1l0,0c0-1.9-1.2-3.1-3.1-3.1c-2.3,0-3.1,1.2-3.1,3.1
		C439.1,343,440.3,344.2,442.2,344.2 M442.2,350.8c2.3,0,3.1-1.2,3.1-3.1l0,0c0-1.9-1.2-3.1-3.1-3.1l0,0c-1.9,0-3.1,1.2-3.1,3.1
		C439.1,349.6,440.3,350.8,442.2,350.8 M415.9,291.2L415.9,291.2c-2.3,0-3.1,1.2-3.1,3.1c0,2.3,1.2,3.1,3.1,3.1l0,0
		c1.9,0,3.1-1.2,3.1-3.1l0,0l0,0C419,292.4,418.2,291.2,415.9,291.2 M422.5,324.1c1.9,0,3.1-1.2,3.1-3.1l0,0c0-1.9-1.2-3.1-3.1-3.1
		l0,0c-1.9,0-3.1,1.2-3.1,3.1l0,0C419.4,323.3,420.6,324.1,422.5,324.1 M429.1,324.1c1.9,0,3.1-1.2,3.1-3.1l0,0
		c0-1.9-1.2-3.1-3.1-3.1l0,0c-1.9,0-3.1,1.2-3.1,3.1l0,0C426,323.3,427.1,324.1,429.1,324.1 M415.9,324.5c-2.3,0-3.1,1.2-3.1,3.1
		c0,2.3,1.2,3.1,3.1,3.1c1.9,0,3.1-1.2,3.1-3.1l0,0l0,0C419,325.3,418.2,324.5,415.9,324.5 M415.9,331c-2.3,0-3.1,1.2-3.1,3.1
		c0,2.3,1.2,3.1,3.1,3.1c1.9,0,3.1-1.2,3.1-3.1l0,0l0,0C419,332.2,418.2,331,415.9,331 M415.9,337.6c-2.3,0-3.1,1.2-3.1,3.1
		c0,1.9,1.2,3.1,3.1,3.1l0,0l0,0c1.9,0,3.1-1.2,3.1-3.1l0,0l0,0C419,338.8,418.2,337.6,415.9,337.6 M415.9,344.2L415.9,344.2
		c-2.3,0-3.1,1.2-3.1,3.1l0,0c0,2.3,1.2,3.1,3.1,3.1c1.9,0,3.1-1.2,3.1-3.1l0,0l0,0C419,345.3,418.2,344.2,415.9,344.2 M415.9,304.4
		c1.9,0,3.1-1.2,3.1-3.1l0,0l0,0c0-1.9-1.2-3.1-3.1-3.1l0,0c-1.9,0-3.1,1.2-3.1,3.1C412.8,303.2,414,304.4,415.9,304.4 M419,307.9
		c0-1.9-1.2-3.1-3.1-3.1c-2.3,0-3.1,1.2-3.1,3.1c0,2.3,1.2,3.1,3.1,3.1C418.2,311,419,309.8,419,307.9L419,307.9z M415.9,311.3
		c-2.3,0-3.1,1.2-3.1,3.1c0,2.3,1.2,3.1,3.1,3.1c1.9,0,3.1-1.2,3.1-3.1l0,0l0,0C419,312.1,418.2,311.3,415.9,311.3 M419,321
		c0-1.9-1.2-3.1-3.1-3.1c-2.3,0-3.1,1.2-3.1,3.1c0,1.9,1.2,3.1,3.1,3.1C418.2,324.1,419,323.3,419,321L419,321z M429.1,317.5
		L429.1,317.5L429.1,317.5c2.3,0,3.1-1.2,3.1-3.1l0,0c0-2.3-1.2-3.1-3.1-3.1c-2.3,0-3.1,1.2-3.1,3.1l0,0
		C426,316.4,427.1,317.5,429.1,317.5 M422.5,317.5L422.5,317.5L422.5,317.5c2.3,0,3.1-1.2,3.1-3.1l0,0c0-2.3-1.2-3.1-3.1-3.1
		c-1.9,0-3.1,1.2-3.1,3.1l0,0C419.4,316.7,420.6,317.5,422.5,317.5 M422.5,304.8L422.5,304.8c-2.3,0-3.1,1.2-3.1,3.1l0,0
		c0,2.3,1.2,3.1,3.1,3.1c2.3,0,3.1-1.2,3.1-3.1C425.6,305.5,424.8,304.8,422.5,304.8 M422.5,304.4L422.5,304.4
		c2.3,0,3.1-1.2,3.1-3.1c0-2.3-1.2-3.1-3.1-3.1c-1.9,0-3.1,1.2-3.1,3.1l0,0l0,0C419.4,303.2,420.6,304.4,422.5,304.4 M422.5,297.8
		c2.3,0,3.1-1.2,3.1-3.1c0-2.3-1.2-3.1-3.1-3.1l0,0c-1.9,0-3.1,1.2-3.1,3.1l0,0C419.4,296.7,420.6,297.8,422.5,297.8"/>
	<path class="st0" d="M422.5,350.8L422.5,350.8c-2.3,0-3.1,1.2-3.1,3.1H419c0-2.3-1.2-3.1-3.1-3.1c-2.3,0-3.1,1.2-3.1,3.1h-0.4
		c0-2.3-1.2-3.1-3.1-3.1v-0.4c2.3,0,3.1-1.2,3.1-3.1c0-1.9-1.2-3.1-3.1-3.1l0,0c2.3,0,3.1-1.2,3.1-3.1c0-1.9-1.2-3.1-3.1-3.1v-0.4
		c2.3,0,3.1-1.2,3.1-3.1c0-2.3-1.2-3.1-3.1-3.1V331c2.3,0,3.1-1.2,3.1-3.1c0-1.9-1.2-3.1-3.1-3.1v-0.4c2.3,0,3.1-1.2,3.1-3.1
		c0-1.9-1.2-3.1-3.1-3.1v-0.4c2.3,0,3.1-1.2,3.1-3.1c0-2.3-1.2-3.1-3.1-3.1V311c2.3,0,3.1-1.2,3.1-3.1c0-1.9-1.2-3.1-3.1-3.1v-0.4
		c2.3,0,3.1-1.2,3.1-3.1c0-2.3-1.2-3.1-3.1-3.1v-0.4c2.3,0,3.1-1.2,3.1-3.1c0-2.3-1.2-3.1-3.1-3.1v-0.4c2.3,0,3.1-1.2,3.1-3.1h0.4
		c0,2.3,1.2,3.1,3.1,3.1l0,0c2.3,0,3.1-1.2,3.1-3.1h0.4c0,2.3,1.2,3.1,3.1,3.1c2.3,0,3.1-1.2,3.1-3.1c0-2.3-1.2-3.1-3.1-3.1
		c-2.3,0-3.1,1.2-3.1,3.1H419c0-2.3-1.2-3.1-3.1-3.1c-2.3,0-3.1,1.2-3.1,3.1h-0.4c0-2.3-1.2-3.1-3.1-3.1c-2.3,0-3.1,1.2-3.1,3.1
		c0,2.3,1.2,3.1,3.1,3.1v0.4c-2.3,0-3.1,1.2-3.1,3.1c0,1.9,1.2,3.1,3.1,3.1l0,0c-2.3,0-3.1,1.2-3.1,3.1c0,2.3,1.2,3.1,3.1,3.1v0.4
		c-2.3,0-3.1,1.2-3.1,3.1c0,1.9,1.2,3.1,3.1,3.1v0.4c-2.3,0-3.1,1.2-3.1,3.1c0,1.9,1.2,3.1,3.1,3.1v0.4c-2.3,0-3.1,1.2-3.1,3.1
		c0,2.3,1.2,3.1,3.1,3.1v0.4c-2.3,0-3.1,1.2-3.1,3.1c0,2.3,1.2,3.1,3.1,3.1v0.4c-2.3,0-3.1,1.2-3.1,3.1c0,2.3,1.2,3.1,3.1,3.1v0.4
		c-2.3,0-3.1,1.2-3.1,3.1c0,1.9,1.2,3.1,3.1,3.1v0.8c-2.3,0-3.1,1.2-3.1,3.1c0,2.3,1.2,3.1,3.1,3.1v0.4c-2.3,0-3.1,1.2-3.1,3.1
		c0,2.3,1.2,3.1,3.1,3.1c2.3,0,3.1-1.2,3.1-3.1h0.4c0,2.3,1.2,3.1,3.1,3.1c2.3,0,3.1-1.2,3.1-3.1h0.4c0,2.3,1.2,3.1,3.1,3.1
		c2.3,0,3.1-1.2,3.1-3.1C425.6,351.9,424.8,350.8,422.5,350.8"/>
	<path class="st0" d="M419.4,347.3L419.4,347.3c0,2.3,1.2,3.1,3.1,3.1l0,0c2.3,0,3.1-1.2,3.1-3.1c0-2.3-1.2-3.1-3.1-3.1l0,0
		C420.6,344.2,419.4,345.3,419.4,347.3L419.4,347.3z M419.4,340.7L419.4,340.7c0,2.3,1.2,3.1,3.1,3.1l0,0c2.3,0,3.1-1.2,3.1-3.1
		c0-1.9-1.2-3.1-3.1-3.1l0,0C420.6,337.6,419.4,338.8,419.4,340.7L419.4,340.7z M419.4,334.1L419.4,334.1c0,2.3,1.2,3.1,3.1,3.1l0,0
		c2.3,0,3.1-1.2,3.1-3.1c0-2.3-1.2-3.1-3.1-3.1l0,0C420.6,331,419.4,332.2,419.4,334.1"/>
	<path class="st0" d="M448.8,350.8L448.8,350.8c-2.3,0-3.1,1.2-3.1,3.1h-0.4c0-2.3-1.2-3.1-3.1-3.1c-2.3,0-3.1,1.2-3.1,3.1h-0.4
		c0-2.3-1.2-3.1-3.1-3.1v-0.4c2.3,0,3.1-1.2,3.1-3.1c0-1.9-0.8-3.1-3.1-3.1l0,0c2.3,0,3.1-1.2,3.1-3.1c0-1.9-1.2-3.1-3.1-3.1v-0.4
		c2.3,0,3.1-1.2,3.1-3.1c0-2.3-1.2-3.1-3.1-3.1V331c2.3,0,3.1-1.2,3.1-3.1c0-1.9-1.2-3.1-3.1-3.1c-2.3,0-3.1,1.2-3.1,3.1h-0.4
		c0-2.3-1.2-3.1-3.1-3.1c-2.3,0-3.1,1.2-3.1,3.1h-0.4c0-2.3-1.2-3.1-3.1-3.1c-1.9,0-3.1,1.2-3.1,3.1l0,0l0,0c0,1.9,1.2,3.1,3.1,3.1
		l0,0c2.3,0,3.1-1.2,3.1-3.1h0.4c0,2.3,1.2,3.1,3.1,3.1c2.3,0,3.1-1.2,3.1-3.1h0.4c0,2.3,1.2,3.1,3.1,3.1v0.4
		c-2.3,0-3.1,1.2-3.1,3.1c0,1.9,1.2,3.1,3.1,3.1v0.4c-2.3,0-3.1,1.2-3.1,3.1c0,2.3,1.2,3.1,3.1,3.1l0,0c-2.3,0-3.1,1.2-3.1,3.1
		c0,2.3,1.2,3.1,3.1,3.1v0.4c-2.3,0-3.1,1.2-3.1,3.1c0,1.9,1.2,3.1,3.1,3.1c2.3,0,3.1-1.2,3.1-3.1h0.4c0,2.3,1.2,3.1,3.1,3.1
		c2.3,0,3.1-1.2,3.1-3.1h0.4c0,2.3,1.2,3.1,3.1,3.1c2.3,0,3.1-1.2,3.1-3.1C451.9,351.9,451.1,350.8,448.8,350.8"/>
	<path class="st0" d="M451.9,347.3c0-2.3-1.2-3.1-3.1-3.1l0,0c-2.3,0-3.1,1.2-3.1,3.1l0,0c0,2.3,1.2,3.1,3.1,3.1l0,0
		C451.1,350.8,451.9,349.6,451.9,347.3 M448.8,337.6L448.8,337.6c-2.3,0-3.1,1.2-3.1,3.1l0,0c0,2.3,1.2,3.1,3.1,3.1l0,0
		c2.3,0,3.1-1.2,3.1-3.1C451.9,338.8,451.1,337.6,448.8,337.6 M448.8,331L448.8,331c-2.3,0-3.1,1.2-3.1,3.1l0,0
		c0,2.3,1.2,3.1,3.1,3.1l0,0c2.3,0,3.1-1.2,3.1-3.1C451.9,332.2,451.1,331,448.8,331 M451.9,327.6c0-2.3-1.2-3.1-3.1-3.1
		c-2.3,0-3.1,1.2-3.1,3.1c0,1.9,1.2,3.1,3.1,3.1l0,0C451.1,330.7,451.9,329.9,451.9,327.6 M445.3,327.6c0-2.3-1.2-3.1-3.1-3.1l0,0
		c-2.3,0-3.1,1.2-3.1,3.1c0,1.9,1.2,3.1,3.1,3.1l0,0l0,0C444.5,330.7,445.3,329.9,445.3,327.6L445.3,327.6z M442.2,324.1
		L442.2,324.1c2.3,0,3.1-1.2,3.1-3.1c0-2.3-1.2-3.1-3.1-3.1l0,0c-2.3,0-3.1,1.2-3.1,3.1l0,0C439.1,323.3,440.3,324.1,442.2,324.1
		 M439.1,314.4c0,2.3,1.2,3.1,3.1,3.1l0,0c2.3,0,3.1-1.2,3.1-3.1h0.4c0,2.3,1.2,3.1,3.1,3.1c2.3,0,3.1-1.2,3.1-3.1
		c0-2.3-1.2-3.1-3.1-3.1c-2.3,0-3.1,1.2-3.1,3.1h-0.4c0-2.3-1.2-3.1-3.1-3.1S439.1,312.1,439.1,314.4L439.1,314.4z M445.7,307.9
		c0,2.3,1.2,3.1,3.1,3.1c2.3,0,3.1-1.2,3.1-3.1c0-1.9-1.2-3.1-3.1-3.1C446.8,304.8,445.7,305.5,445.7,307.9 M448.8,304.4
		c2.3,0,3.1-1.2,3.1-3.1c0-2.3-1.2-3.1-3.1-3.1c-2.3,0-3.1,1.2-3.1,3.1l0,0C445.7,303.2,446.8,304.4,448.8,304.4 M448.8,297.8
		c2.3,0,3.1-1.2,3.1-3.1c0-2.3-1.2-3.1-3.1-3.1c-2.3,0-3.1,1.2-3.1,3.1l0,0C445.7,296.7,446.8,297.8,448.8,297.8"/>
	<path class="st0" d="M448.8,284.7c-2.3,0-3.1,1.2-3.1,3.1h-0.4c0-2.3-1.2-3.1-3.1-3.1c-2.3,0-3.1,1.2-3.1,3.1h-0.4
		c0-2.3-1.2-3.1-3.1-3.1c-2.3,0-3.1,1.2-3.1,3.1c0,2.3,1.2,3.1,3.1,3.1v0.4c-2.3,0-3.1,1.2-3.1,3.1c0,2.3,1.2,3.1,3.1,3.1v0.4
		c-2.3,0-3.1,1.2-3.1,3.1c0,2.3,1.2,3.1,3.1,3.1v0.4c-2.3,0-3.1,1.2-3.1,3.1c0,2.3,1.2,3.1,3.1,3.1v0.4c-2.3,0-3.1,1.2-3.1,3.1l0,0
		c0,2.3,1.2,3.1,3.1,3.1l0,0l0,0c1.9,0,3.1-1.2,3.1-3.1l0,0c0-2.3-1.2-3.1-3.1-3.1l0,0c2.3,0,3.1-1.2,3.1-3.1l0,0
		c0-2.3-1.2-3.1-3.1-3.1v-0.4c2.3,0,3.1-1.2,3.1-3.1c0-2.3-1.2-3.1-3.1-3.1v-0.4c2.3,0,3.1-1.2,3.1-3.1c0-2.3-1.2-3.1-3.1-3.1v-0.4
		c2.3,0,3.1-1.2,3.1-3.1h0.4c0,2.3,1.2,3.1,3.1,3.1l0,0c2.3,0,3.1-1.2,3.1-3.1h0.4c0,2.3,1.2,3.1,3.1,3.1c2.3,0,3.1-1.2,3.1-3.1
		C451.9,285.8,451.1,284.7,448.8,284.7 M476.6,297.8L476.6,297.8c2.3,0,3.1-1.2,3.1-3.1l0,0c0-2.3-1.2-3.1-3.1-3.1l0,0
		c-2.3,0-3.1,1.2-3.1,3.1l0,0C473.5,296.7,474.3,297.8,476.6,297.8 M483.2,297.8L483.2,297.8c2.3,0,3.1-1.2,3.1-3.1l0,0
		c0-2.3-1.2-3.1-3.1-3.1l0,0c-2.3,0-3.1,1.2-3.1,3.1C480.1,296.7,480.8,297.8,483.2,297.8 M489.7,291.2L489.7,291.2
		c-2.3,0-3.1,1.2-3.1,3.1l0,0c0,2.3,1.2,3.1,3.1,3.1c1.9,0,3.1-1.2,3.1-3.1l0,0C492.8,292.4,491.7,291.2,489.7,291.2 M496.3,297.8
		L496.3,297.8c-2.3,0-3.1,1.2-3.1,3.1l0,0c0,2.3,1.2,3.1,3.1,3.1l0,0c1.9,0,3.1-1.2,3.1-3.1l0,0l0,0
		C499.4,299,498.2,297.8,496.3,297.8 M489.7,317.9c-2.3,0-3.1,1.2-3.1,3.1c0,1.9,1.2,3.1,3.1,3.1c1.9,0,3.1-1.2,3.1-3.1l0,0
		C492.8,318.7,491.7,317.9,489.7,317.9 M483.2,324.1c2.3,0,3.1-1.2,3.1-3.1c0-2.3-1.2-3.1-3.1-3.1c-2.3,0-3.1,1.2-3.1,3.1
		C480.1,323.3,480.8,324.1,483.2,324.1 M476.6,324.1c2.3,0,3.1-1.2,3.1-3.1c0-2.3-1.2-3.1-3.1-3.1c-2.3,0-3.1,1.2-3.1,3.1l0,0
		C473.5,323.3,474.3,324.1,476.6,324.1 M470,317.9c-2.3,0-3.1,1.2-3.1,3.1l0,0c0,2.3,1.2,3.1,3.1,3.1c2.3,0,3.1-1.2,3.1-3.1l0,0
		C473.1,318.7,472,317.9,470,317.9 M470,324.5c-2.3,0-3.1,1.2-3.1,3.1l0,0c0,2.3,1.2,3.1,3.1,3.1c1.9,0,3.1-1.2,3.1-3.1l0,0l0,0
		C473.1,325.3,472,324.5,470,324.5 M470,331c-2.3,0-3.1,1.2-3.1,3.1c0,2.3,1.2,3.1,3.1,3.1c1.9,0,3.1-1.2,3.1-3.1l0,0l0,0
		C473.1,332.2,472,331,470,331 M470,337.6c-2.3,0-3.1,1.2-3.1,3.1l0,0c0,2.3,1.2,3.1,3.1,3.1l0,0l0,0c1.9,0,3.1-1.2,3.1-3.1l0,0l0,0
		C473.1,338.8,472,337.6,470,337.6 M470,344.2L470,344.2c-2.3,0-3.1,1.2-3.1,3.1l0,0c0,2.3,1.2,3.1,3.1,3.1l0,0
		c1.9,0,3.1-1.2,3.1-3.1l0,0l0,0C473.1,345.3,472,344.2,470,344.2 M470,304.8L470,304.8c-2.3,0-3.1,1.2-3.1,3.1l0,0
		c0,1.9,1.2,3.1,3.1,3.1c2.3,0,3.1-1.2,3.1-3.1C473.1,305.5,472,304.8,470,304.8L470,304.8L470,304.8z M470,291.2
		c-2.3,0-3.1,1.2-3.1,3.1l0,0c0,1.9,1.2,3.1,3.1,3.1l0,0c1.9,0,3.1-1.2,3.1-3.1C473.1,292.4,472,291.2,470,291.2 M489.7,304.8
		L489.7,304.8c-2.3,0-3.1,1.2-3.1,3.1c0,2.3,1.2,3.1,3.1,3.1c2.3,0,3.1-1.2,3.1-3.1l0,0C492.8,305.5,491.7,304.8,489.7,304.8
		 M483.2,317.5c2.3,0,3.1-1.2,3.1-3.1l0,0c0-2.3-1.2-3.1-3.1-3.1c-2.3,0-3.1,1.2-3.1,3.1C480.1,316.4,480.8,317.5,483.2,317.5
		 M476.6,297.8L476.6,297.8c-2.3,0-3.1,1.2-3.1,3.1l0,0c0,2.3,1.2,3.1,3.1,3.1c2.3,0,3.1-1.2,3.1-3.1
		C479.7,299,478.5,297.8,476.6,297.8 M479.7,307.9c0-2.3-1.2-3.1-3.1-3.1l0,0c-1.9,0-3.1,1.2-3.1,3.1c0,2.3,1.2,3.1,3.1,3.1
		C478.5,311,479.7,309.8,479.7,307.9 M479.7,314.4c0-2.3-1.2-3.1-3.1-3.1c-2.3,0-3.1,1.2-3.1,3.1l0,0c0,2.3,1.2,3.1,3.1,3.1
		C478.5,317.5,479.7,316.4,479.7,314.4z M483.2,297.8L483.2,297.8c-2.3,0-3.1,1.2-3.1,3.1l0,0c0,2.3,1.2,3.1,3.1,3.1
		c2.3,0,3.1-1.2,3.1-3.1C486.3,299,485.1,297.8,483.2,297.8 M489.7,297.8c-2.3,0-3.1,1.2-3.1,3.1c0,2.3,1.2,3.1,3.1,3.1l0,0
		c1.9,0,3.1-1.2,3.1-3.1l0,0C492.8,299,491.7,297.8,489.7,297.8 M470,297.8L470,297.8c-2.3,0-3.1,1.2-3.1,3.1c0,2.3,1.2,3.1,3.1,3.1
		c2.3,0,3.1-1.2,3.1-3.1l0,0C473.1,299,472,297.8,470,297.8 M470,317.5c2.3,0,3.1-1.2,3.1-3.1c0-1.9-1.2-3.1-3.1-3.1
		c-2.3,0-3.1,1.2-3.1,3.1C466.9,316.4,467.7,317.5,470,317.5 M492.8,314.4c0-1.9-1.2-3.1-3.1-3.1c-2.3,0-3.1,1.2-3.1,3.1
		c0,2.3,1.2,3.1,3.1,3.1S492.8,316.7,492.8,314.4L492.8,314.4L492.8,314.4L492.8,314.4L492.8,314.4z M496.3,304.8L496.3,304.8
		c-2.3,0-3.1,1.2-3.1,3.1l0,0c0,2.3,1.2,3.1,3.1,3.1c2.3,0,3.1-1.2,3.1-3.1C499.4,305.5,498.2,304.8,496.3,304.8 M493.2,314.4
		c0,1.9,1.2,3.1,3.1,3.1c2.3,0,3.1-1.2,3.1-3.1c0-2.3-1.2-3.1-3.1-3.1C494,311.3,493.2,312.1,493.2,314.4L493.2,314.4z M502.9,304.4
		L502.9,304.4c2.3,0,3.1-1.2,3.1-3.1c0-2.3-1.2-3.1-3.1-3.1c-2.3,0-3.1,1.2-3.1,3.1l0,0C499.8,303.2,500.6,304.4,502.9,304.4
		 M502.9,297.8c2.3,0,3.1-1.2,3.1-3.1c0-2.3-1.2-3.1-3.1-3.1c-2.3,0-3.1,1.2-3.1,3.1C499.8,296.7,500.6,297.8,502.9,297.8
		 M496.3,291.2L496.3,291.2c-1.9,0-3.1,1.2-3.1,3.1l0,0c0,1.9,1.2,3.1,3.1,3.1l0,0c2.3,0,3.1-1.2,3.1-3.1
		C499.4,292.4,498.2,291.2,496.3,291.2"/>
	<path class="st0" d="M476.6,350.8L476.6,350.8c-2.3,0-3.1,1.2-3.1,3.1h-0.4c0-2.3-1.2-3.1-3.1-3.1c-2.3,0-3.1,1.2-3.1,3.1h-0.4
		c0-2.3-1.2-3.1-3.1-3.1v-0.4c2.3,0,3.1-1.2,3.1-3.1c0-2.3-1.2-3.1-3.1-3.1l0,0c2.3,0,3.1-1.2,3.1-3.1c0-2.3-1.2-3.1-3.1-3.1v-0.4
		c2.3,0,3.1-1.2,3.1-3.1c0-2.3-1.2-3.1-3.1-3.1V331c2.3,0,3.1-1.2,3.1-3.1c0-2.3-1.2-3.1-3.1-3.1v-0.4c2.3,0,3.1-1.2,3.1-3.1
		c0-2.3-1.2-3.1-3.1-3.1v-0.4c2.3,0,3.1-1.2,3.1-3.1c0-2.3-1.2-3.1-3.1-3.1V311c2.3,0,3.1-1.2,3.1-3.1c0-2.3-1.2-3.1-3.1-3.1v-0.4
		c2.3,0,3.1-1.2,3.1-3.1c0-2.3-1.2-3.1-3.1-3.1v-0.4c2.3,0,3.1-1.2,3.1-3.1c0-2.3-1.2-3.1-3.1-3.1v-0.4c2.3,0,3.1-1.2,3.1-3.1h0.4
		c0,2.3,1.2,3.1,3.1,3.1c2.3,0,3.1-1.2,3.1-3.1h0.4c0,2.3,1.2,3.1,3.1,3.1l0,0c2.3,0,3.1-1.2,3.1-3.1h0.4c0,2.3,1.2,3.1,3.1,3.1l0,0
		c2.3,0,3.1-1.2,3.1-3.1h0.4c0,2.3,1.2,3.1,3.1,3.1l0,0c2.3,0,3.1-1.2,3.1-3.1h0.4c0,2.3,1.2,3.1,3.1,3.1l0,0c2.3,0,3.1-1.2,3.1-3.1
		c0-2.3-1.2-3.1-3.1-3.1c-2.3,0-3.1,1.2-3.1,3.1h-0.4c0-2.3-1.2-3.1-3.1-3.1c-1.9,0-3.1,1.2-3.1,3.1h-0.4c0-2.3-1.2-3.1-3.1-3.1
		c-2.3,0-3.1,1.2-3.1,3.1h-0.4c0-2.3-1.2-3.1-3.1-3.1c-1.9,0-3.1,1.2-3.1,3.1h-0.4c0-2.3-1.2-3.1-3.1-3.1c-2.3,0-3.1,1.2-3.1,3.1
		h-0.4c0-2.3-1.2-3.1-3.1-3.1c-2.3,0-3.1,1.2-3.1,3.1c0,2.3,1.2,3.1,3.1,3.1v0.4c-2.3,0-3.1,1.2-3.1,3.1c0,2.3,1.2,3.1,3.1,3.1l0,0
		c-2.3,0-3.1,1.2-3.1,3.1c0,1.9,1.2,3.1,3.1,3.1v0.4c-2.3,0-3.1,1.2-3.1,3.1c0,2.3,1.2,3.1,3.1,3.1v0.4c-2.3,0-3.1,1.2-3.1,3.1
		c0,1.9,1.2,3.1,3.1,3.1v0.4c-2.3,0-3.1,1.2-3.1,3.1c0,2.3,1.2,3.1,3.1,3.1v0.4c-2.3,0-3.1,1.2-3.1,3.1c0,2.3,1.2,3.1,3.1,3.1v0.4
		c-2.3,0-3.1,1.2-3.1,3.1c0,2.3,1.2,3.1,3.1,3.1v0.4c-2.3,0-3.1,1.2-3.1,3.1c0,2.3,1.2,3.1,3.1,3.1v0.8c-2.3,0-3.1,1.2-3.1,3.1
		c0,1.9,1.2,3.1,3.1,3.1v0.4c-2.3,0-3.1,1.2-3.1,3.1c0,2.3,1.2,3.1,3.1,3.1c2.3,0,3.1-1.2,3.1-3.1h0.4c0,2.3,1.2,3.1,3.1,3.1
		c2.3,0,3.1-1.2,3.1-3.1h0.4c0,2.3,1.2,3.1,3.1,3.1c2.3,0,3.1-1.2,3.1-3.1C479.7,351.9,478.5,350.8,476.6,350.8"/>
	<path class="st0" d="M473.5,347.3L473.5,347.3c0,2.3,1.2,3.1,3.1,3.1l0,0c2.3,0,3.1-1.2,3.1-3.1c0-2.3-1.2-3.1-3.1-3.1l0,0
		C474.3,344.2,473.5,345.3,473.5,347.3L473.5,347.3z M473.5,340.7L473.5,340.7c0,2.3,1.2,3.1,3.1,3.1l0,0c2.3,0,3.1-1.2,3.1-3.1
		c0-2.3-1.2-3.1-3.1-3.1l0,0C474.3,337.6,473.5,338.8,473.5,340.7L473.5,340.7z M473.5,334.1L473.5,334.1c0,2.3,1.2,3.5,3.1,3.5l0,0
		c2.3,0,3.1-1.2,3.1-3.1c0-2.3-1.2-3.1-3.1-3.1l0,0C474.3,331,473.5,332.2,473.5,334.1 M496.3,324.5L496.3,324.5
		c-2.3,0-3.1,1.2-3.1,3.1h-0.4c0-2.3-1.2-3.1-3.1-3.1c-2.3,0-3.1,1.2-3.1,3.1h-0.4c0-2.3-1.2-3.1-3.1-3.1c-2.3,0-3.1,1.2-3.1,3.1
		h-0.4c0-2.3-1.2-3.1-3.1-3.1c-1.9,0-3.1,1.2-3.1,3.1l0,0l0,0c0,1.9,1.2,3.1,3.1,3.1l0,0c2.3,0,3.1-1.2,3.1-3.1h0.4
		c0,2.3,1.2,3.1,3.1,3.1c2.3,0,3.1-1.2,3.1-3.1h0.4c0,2.3,1.2,3.1,3.1,3.1c2.3,0,3.1-1.2,3.1-3.1h0.4c0,2.3,1.2,3.1,3.1,3.1
		c2.3,0,3.1-1.2,3.1-3.1C499.4,325.6,498.2,324.5,496.3,324.5 M502.9,317.9L502.9,317.9c-2.3,0-3.1,1.2-3.1,3.1h-0.4
		c0-2.3-1.2-3.1-3.1-3.1c-1.9,0-3.1,1.2-3.1,3.1l0,0c0,1.9,1.2,3.1,3.1,3.1l0,0c2.3,0,3.1-1.2,3.1-3.1h0.4c0,2.3,1.2,3.1,3.1,3.1
		c2.3,0,3.1-1.2,3.1-3.1C506,318.7,504.8,317.9,502.9,317.9 M502.9,311.3c-2.3,0-3.1,1.2-3.1,3.1c0,2.3,1.2,3.1,3.1,3.1
		c2.3,0,3.1-1.2,3.1-3.1C506,312.1,504.8,311.3,502.9,311.3 M502.9,304.8L502.9,304.8c-2.3,0-3.1,1.2-3.1,3.1c0,1.2,0.4,1.9,0.8,2.3
		c0.4,0.4,1.2,0.8,2.3,0.8c2.3,0,3.1-1.2,3.1-3.1C506,305.5,504.8,304.8,502.9,304.8 M556.6,304.4L556.6,304.4L556.6,304.4
		c2.3,0,3.1-1.2,3.1-3.1c0-2.3-1.2-3.1-3.1-3.1c-2.3,0-3.1,1.2-3.1,3.1l0,0l0,0C553.5,303.2,554.6,304.4,556.6,304.4 M550,304.4
		L550,304.4c2.3,0,3.1-1.2,3.1-3.1l0,0c0-2.3-1.2-3.1-3.1-3.1c-2.3,0-3.1,1.2-3.1,3.1l0,0l0,0C546.9,303.2,548.1,304.4,550,304.4
		 M546.9,307.9c0,2.3,1.2,3.1,3.1,3.1c2.3,0,3.1-1.2,3.1-3.1l0,0c0-1.9-1.2-3.1-3.1-3.1l0,0l0,0
		C548.1,304.8,546.9,305.5,546.9,307.9L546.9,307.9L546.9,307.9L546.9,307.9z M550,317.9c-2.3,0-3.1,1.2-3.1,3.1l0,0
		c0,2.3,1.2,3.1,3.1,3.1c1.9,0,3.1-1.2,3.1-3.1C553.1,319.1,552.3,317.9,550,317.9 M550,324.5c-2.3,0-3.1,1.2-3.1,3.1l0,0
		c0,2.3,1.2,3.1,3.1,3.1c1.9,0,3.1-1.2,3.1-3.1C553.1,325.6,552.3,324.5,550,324.5 M553.5,334.1c0-2.3-1.2-3.1-3.1-3.1
		c-2.3,0-3.1,1.2-3.1,3.1l0,0c0,2.3,1.2,3.1,3.1,3.1C552.3,337.2,553.5,336.5,553.5,334.1L553.5,334.1z M550,344.2L550,344.2
		c2.3,0,3.1-1.2,3.1-3.1l0,0c0-2.3-1.2-3.1-3.1-3.1c-2.3,0-3.1,1.2-3.1,3.1l0,0l0,0C546.9,343,548.1,344.2,550,344.2 M540.4,347.3
		c0,2.3,1.2,3.1,3.1,3.1l0,0c1.9,0,3.1-1.2,3.1-3.1l0,0c0-1.9-1.2-3.1-3.1-3.1l0,0l0,0C541.5,344.2,540.4,345.3,540.4,347.3
		L540.4,347.3L540.4,347.3z M536.9,350.8c2.3,0,3.1-1.2,3.1-3.1l0,0c0-1.9-1.2-3.1-3.1-3.1l0,0l0,0c-1.9,0-3.1,1.2-3.1,3.1l0,0
		C533.8,349.6,534.9,350.8,536.9,350.8 M530.3,350.8L530.3,350.8c2.3,0,3.1-1.2,3.1-3.1l0,0c0-1.9-1.2-3.1-3.1-3.1l0,0l0,0
		c-1.9,0-3.1,1.2-3.1,3.1l0,0C527.2,349.6,528.4,350.8,530.3,350.8 M523.7,344.2L523.7,344.2c2.3,0,3.1-1.2,3.1-3.1l0,0
		c0-1.9-1.2-3.1-3.1-3.1c-2.3,0-3.1,1.2-3.1,3.1l0,0C520.6,343,521.8,344.2,523.7,344.2 M523.7,324.5c-1.9,0-3.1,1.2-3.1,3.1l0,0
		c0,1.9,1.2,3.1,3.1,3.1c1.9,0,3.1-1.2,3.1-3.1l0,0C527.2,325.6,526.1,324.5,523.7,324.5 M523.7,317.9c-1.9,0-3.1,1.2-3.1,3.1l0,0
		c0,1.9,1.2,3.1,3.1,3.1c1.9,0,3.1-1.2,3.1-3.1l0,0C527.2,318.7,526.1,317.9,523.7,317.9 M530.3,297.8L530.3,297.8
		c-2.3,0-3.1,1.2-3.1,3.1l0,0l0,0c0,1.9,1.2,3.1,3.1,3.1l0,0c1.9,0,3.1-1.2,3.1-3.1l0,0C533.8,299,532.6,297.8,530.3,297.8
		 M530.3,291.2c-1.9,0-3.1,1.2-3.1,3.1l0,0c0,1.9,1.2,3.1,3.1,3.1l0,0c2.3,0,3.1-1.2,3.1-3.1C533.4,292.4,532.6,291.2,530.3,291.2
		 M536.9,297.8c2.3,0,3.1-1.2,3.1-3.1l0,0c0-1.9-1.2-3.1-3.1-3.1l0,0c-1.9,0-3.1,1.2-3.1,3.1l0,0
		C533.8,296.7,534.9,297.8,536.9,297.8 M540.4,294.7c0,2.3,1.2,3.1,3.1,3.1c2.3,0,3.1-1.2,3.1-3.1l0,0c0-2.3-1.2-3.1-3.1-3.1
		C541.5,291.2,540.4,292.4,540.4,294.7L540.4,294.7z M543.4,311.3c-2.3,0-3.1,1.2-3.1,3.1c0,2.3,1.2,3.1,3.1,3.1l0,0
		c2.3,0,3.1-1.2,3.1-3.1l0,0C546.9,312.1,545.8,311.3,543.4,311.3 M540.4,340.7c0-2.3-1.2-3.1-3.1-3.1c-2.3,0-3.1,1.2-3.1,3.1
		c0,1.9,1.2,3.1,3.1,3.1h0.4C539.2,343.8,540.4,343,540.4,340.7 M530.3,337.2L530.3,337.2c2.3,0,3.1-1.2,3.1-3.1
		c0-2.3-1.2-3.1-3.1-3.1l0,0c-1.9,0-3.1,1.2-3.1,3.1l0,0C527.2,336.5,528.4,337.2,530.3,337.2 M533.8,307.9c0-2.3-1.2-3.1-3.1-3.1
		l0,0c-1.9,0-3.1,1.2-3.1,3.1c0,2.3,1.2,3.1,3.1,3.1S533.8,309.8,533.8,307.9 M530.3,330.7L530.3,330.7c2.3,0,3.1-1.2,3.1-3.1
		c0-2.3-1.2-3.1-3.1-3.1l0,0c-1.9,0-3.1,1.2-3.1,3.1l0,0C527.2,329.9,528.4,330.7,530.3,330.7 M533.8,321c0-2.3-1.2-3.1-3.1-3.1l0,0
		c-1.9,0-3.1,1.2-3.1,3.1l0,0c0,1.9,1.2,3.1,3.1,3.1l0,0C532.6,324.1,533.8,323.3,533.8,321 M530.3,317.5L530.3,317.5
		c2.3,0,3.1-1.2,3.1-3.1c0-2.3-1.2-3.1-3.1-3.1c-2.3,0-3.1,1.2-3.1,3.1C527.2,316.4,528.4,317.5,530.3,317.5 M536.9,297.8
		L536.9,297.8c-2.3,0-3.1,1.2-3.1,3.1c0,2.3,1.2,3.1,3.1,3.1c2.3,0,3.1-1.2,3.1-3.1l0,0C540.4,299,539.2,297.8,536.9,297.8
		 M543.4,330.7L543.4,330.7c2.3,0,3.1-1.2,3.1-3.1l0,0c0-2.3-1.2-3.1-3.1-3.1l0,0c-2.3,0-3.1,1.2-3.1,3.1
		C540.4,329.9,541.5,330.7,543.4,330.7 M543.4,331L543.4,331c-2.3,0-3.1,1.2-3.1,3.1c0,2.3,1.2,3.1,3.1,3.1l0,0
		c2.3,0,3.1-1.2,3.1-3.1l0,0C546.9,332.2,545.8,331,543.4,331 M543.4,324.1c2.3,0,3.1-1.2,3.1-3.1l0,0c0-2.3-1.2-3.1-3.1-3.1l0,0
		c-2.3,0-3.1,1.2-3.1,3.1C540.4,323.3,541.5,324.1,543.4,324.1L543.4,324.1z M543.4,311c2.3,0,3.1-1.2,3.1-3.1l0,0
		c0-1.9-1.2-3.1-3.1-3.1l0,0l0,0c-2.3,0-3.1,1.2-3.1,3.1C540.4,309.8,541.5,311,543.4,311 M543.4,304.4L543.4,304.4
		c2.3,0,3.1-1.2,3.1-3.1l0,0c0-2.3-1.2-3.1-3.1-3.1c-2.3,0-3.1,1.2-3.1,3.1l0,0C540.4,303.2,541.5,304.4,543.4,304.4 M527.2,307.9
		L527.2,307.9c0-2.3-1.2-3.1-3.1-3.1l0,0c-1.9,0-3.1,1.2-3.1,3.1l0,0c0,2.3,1.2,3.1,3.1,3.1C526.1,311,527.2,309.8,527.2,307.9
		 M520.6,314.4c0,2.3,1.2,3.1,3.1,3.1c2.3,0,3.1-1.2,3.1-3.1l0,0c0-2.3-1.2-3.1-3.1-3.1C521.8,311.3,520.6,312.1,520.6,314.4
		L520.6,314.4z M523.7,337.2c1.9,0,3.1-1.2,3.1-3.1l0,0c0-1.9-1.2-3.1-3.1-3.1c-2.3,0-3.1,1.2-3.1,3.1
		C520.6,336.1,521.8,337.2,523.7,337.2 M530.3,344.2L530.3,344.2c2.3,0,3.1-1.2,3.1-3.1l0,0c0-2.3-1.2-3.1-3.1-3.1l0,0
		c-1.9,0-3.1,1.2-3.1,3.1l0,0C527.2,343,528.4,344.2,530.3,344.2 M546.9,340.7c0-2.3-1.2-3.1-3.1-3.1l0,0c-2.3,0-3.1,1.2-3.1,3.1
		c0,1.9,1.2,3.1,3.1,3.1l0,0l0,0C545.8,343.8,546.9,343,546.9,340.7L546.9,340.7z M523.7,297.8c-2.3,0-3.1,1.2-3.1,3.1
		c0,2.3,1.2,3.1,3.1,3.1l0,0c1.9,0,3.1-1.2,3.1-3.1l0,0C527.2,299,526.1,297.8,523.7,297.8 M550,311.3c-2.3,0-3.1,1.2-3.1,3.1l0,0
		c0,2.3,1.2,3.1,3.1,3.1c1.9,0,3.1-1.2,3.1-3.1C553.5,312.1,552.3,311.3,550,311.3 M556.6,297.8c2.3,0,3.1-1.2,3.1-3.1
		c0-2.3-1.2-3.1-3.1-3.1c-1.9,0-3.1,1.2-3.1,3.1l0,0C553.5,296.7,554.6,297.8,556.6,297.8 M546.9,294.7c0,2.3,1.2,3.1,3.1,3.1
		c2.3,0,3.1-1.2,3.1-3.1l0,0c0-2.3-1.2-3.1-3.1-3.1C548.1,291.2,546.9,292.4,546.9,294.7L546.9,294.7L546.9,294.7z"/>
	<path class="st0" d="M520.6,294.7L520.6,294.7c0,2.3,1.2,3.1,3.1,3.1c2.3,0,3.1-1.2,3.1-3.1c0-2.3-1.2-3.1-3.1-3.1v-0.4
		c2.3,0,3.1-1.2,3.1-3.1h0.4c0,2.3,1.2,3.1,3.1,3.1c2.3,0,3.1-1.2,3.1-3.1h0.4c0,2.3,1.2,3.1,3.1,3.1c2.3,0,3.1-1.2,3.1-3.1h0.4
		c0,2.3,1.2,3.1,3.1,3.1c2.3,0,3.1-1.2,3.1-3.1h0.4c0,2.3,1.2,3.1,3.1,3.1c2.3,0,3.1-1.2,3.1-3.1c0-2.3-1.2-3.1-3.1-3.1
		c-2.3,0-3.1,1.2-3.1,3.1h-0.4c0-2.3-1.2-3.1-3.1-3.1c-2.3,0-3.1,1.2-3.1,3.1H540c0-2.3-1.2-3.1-3.1-3.1c-2.3,0-3.1,1.2-3.1,3.1
		h-0.4c0-2.3-1.2-3.1-3.1-3.1c-2.3,0-3.1,1.2-3.1,3.1h-0.4c0-2.3-1.2-3.1-3.1-3.1c-2.3,0-3.1,1.2-3.1,3.1c0,2.3,1.2,3.1,3.1,3.1v0.4
		C521.8,291.2,520.6,292.4,520.6,294.7"/>
	<path class="st0" d="M550,350.8L550,350.8c-2.3,0-3.1,1.2-3.1,3.1h-0.4c0-2.3-1.2-3.1-3.1-3.1c-2.3,0-3.1,1.2-3.1,3.1H540
		c0-2.3-1.2-3.1-3.1-3.1c-2.3,0-3.1,1.2-3.1,3.1h-0.4c0-2.3-1.2-3.1-3.1-3.1c-1.9,0-3.1,1.2-3.1,3.1h-0.4c0-2.3-1.2-3.1-3.1-3.1
		v-0.4c2.3,0,3.1-1.2,3.1-3.1c0-1.9-1.2-3.1-3.1-3.1c-2.3,0-3.1,1.2-3.1,3.1h-0.4c0-2.3-1.2-3.1-3.1-3.1l0,0c2.3,0,3.1-1.2,3.1-3.1
		c0-1.9-1.2-3.1-3.1-3.1v-0.4c2.3,0,3.1-1.2,3.1-3.1c0-1.9-1.2-3.1-3.1-3.1V331c2.3,0,3.1-1.2,3.1-3.1c0-2.3-1.2-3.1-3.1-3.1v-0.4
		c2.3,0,3.1-1.2,3.1-3.1c0-2.3-1.2-3.1-3.1-3.1v-0.4c2.3,0,3.1-1.2,3.1-3.1c0-2.3-1.2-3.1-3.1-3.1V311c2.3,0,3.1-1.2,3.1-3.1
		c0-2.3-1.2-3.1-3.1-3.1v-0.4c2.3,0,3.1-1.2,3.1-3.1c0-1.9-0.8-3.5-3.1-3.5l0,0c2.3,0,3.1-1.2,3.1-3.1l0,0c0-2.3-1.2-3.1-3.1-3.1
		c-2.3,0-3.1,1.2-3.1,3.1c0,1.9,1.2,3.1,3.1,3.1l0,0c-2.3,0-3.1,1.2-3.1,3.1c0,1.9,1.2,3.1,3.1,3.1v0.4c-2.3,0-3.1,1.2-3.1,3.1
		c0,2.3,1.2,3.1,3.1,3.1v0.4c-2.3,0-3.1,1.2-3.1,3.1c0,2.3,1.2,3.1,3.1,3.1v0.4c-2.3,0-3.1,1.2-3.1,3.1c0,2.3,1.2,3.1,3.1,3.1v0.4
		c-2.3,0-3.1,1.2-3.1,3.1c0,1.9,1.2,3.1,3.1,3.1v0.4c-2.3,0-3.1,1.2-3.1,3.1c0,1.9,1.2,3.1,3.1,3.1v0.4c-2.3,0-3.1,1.2-3.1,3.1
		c0,1.9,1.2,3.1,3.1,3.1v0.8c-2.3,0-3.1,1.2-3.1,3.1c0,1.9,1.2,3.1,3.1,3.1c2.3,0,3.1-1.2,3.1-3.1h0.4c0,2.3,1.2,3.1,3.1,3.1v0.4
		c-2.3,0-3.1,1.2-3.1,3.1c0,2.3,1.2,3.1,3.1,3.1c2.3,0,3.1-1.2,3.1-3.1h0.4c0,2.3,1.2,3.1,3.1,3.1c2.3,0,3.1-1.2,3.1-3.1h0.4
		c0,2.3,1.2,3.1,3.1,3.1c2.3,0,3.1-1.2,3.1-3.1h0.4c0,2.3,1.2,3.1,3.1,3.1c2.3,0,3.1-1.2,3.1-3.1h0.4c0,2.3,1.2,3.1,3.1,3.1
		c2.3,0,3.1-1.2,3.1-3.1C553.5,351.9,552.3,350.8,550,350.8"/>
	<path class="st0" d="M556.6,344.2L556.6,344.2c-2.3,0-3.1,1.2-3.1,3.1h-0.4c0-2.3-1.2-3.1-3.1-3.1c-1.9,0-3.1,1.2-3.1,3.1l0,0l0,0
		l0,0c0,2.3,1.2,3.1,3.1,3.1l0,0c2.3,0,3.1-1.2,3.1-3.1h0.4c0,2.3,1.2,3.1,3.1,3.1c2.3,0,3.1-1.2,3.1-3.1
		C560.1,345.3,558.9,344.2,556.6,344.2 M556.6,337.6L556.6,337.6c-2.3,0-3.1,1.2-3.1,3.1c0,1.9,1.2,3.1,3.1,3.1l0,0
		c2.3,0,3.1-1.2,3.1-3.1C560.1,338.8,558.9,337.6,556.6,337.6 M556.6,331L556.6,331c-2.3,0-3.1,1.2-3.1,3.1c0,1.9,1.2,3.1,3.1,3.1
		l0,0c2.3,0,3.1-1.2,3.1-3.1C559.7,332.2,558.9,331,556.6,331 M556.6,324.5L556.6,324.5c-2.3,0-3.1,1.2-3.1,3.1
		c0,1.9,1.2,3.1,3.1,3.1l0,0c2.3,0,3.1-1.2,3.1-3.1C560.1,325.6,558.9,324.5,556.6,324.5 M556.6,317.9L556.6,317.9
		c-2.3,0-3.1,1.2-3.1,3.1c0,1.9,1.2,3.1,3.1,3.1l0,0c2.3,0,3.1-1.2,3.1-3.1C560.1,318.7,558.9,317.9,556.6,317.9 M556.6,311.3
		c-2.3,0-3.1,1.2-3.1,3.1c0,2.3,1.2,3.1,3.1,3.1l0,0c2.3,0,3.1-1.2,3.1-3.1C560.1,312.1,558.9,311.3,556.6,311.3 M556.6,304.8
		L556.6,304.8c-2.3,0-3.1,1.2-3.1,3.1c0,2.3,1.2,3.1,3.1,3.1c2.3,0,3.1-1.2,3.1-3.1C560.1,305.5,558.9,304.8,556.6,304.8
		 M577.8,291.2c-2.3,0-3.1,1.2-3.1,3.1l0,0c0,2.3,1.2,3.1,3.1,3.1c2.3,0,3.1-1.2,3.1-3.1C580.9,292.4,580.2,291.2,577.8,291.2
		 M597.5,350.8L597.5,350.8c-2.3,0-3.1,1.2-3.1,3.1h-0.4c0-2.3-1.2-3.1-3.1-3.1c-2.3,0-3.1,1.2-3.1,3.1h-0.4c0-2.3-1.2-3.1-3.1-3.1
		v-0.4c2.3,0,3.1-1.2,3.1-3.1l0,0c0-2.3-1.2-3.1-3.1-3.1l0,0c2.3,0,3.1-1.2,3.1-3.1l0,0c0-2.3-1.2-3.1-3.1-3.1v-0.4
		c2.3,0,3.1-1.2,3.1-3.1l0,0c0-2.3-1.2-3.1-3.1-3.1V331c2.3,0,3.1-1.2,3.1-3.1l0,0c0-2.3-1.2-3.1-3.1-3.1v-0.4
		c2.3,0,3.1-1.2,3.1-3.1l0,0c0-2.3-1.2-3.1-3.1-3.1v-0.4c2.3,0,3.1-1.2,3.1-3.1l0,0c0-2.3-1.2-3.1-3.1-3.1V311
		c2.3,0,3.1-1.2,3.1-3.1c0-2.3-1.2-3.1-3.1-3.1v-0.4c2.3,0,3.1-1.2,3.1-3.1c0-2.3-1.2-3.1-3.1-3.1v-0.4c2.3,0,3.1-1.2,3.1-3.1
		c0-2.3-1.2-3.1-3.1-3.1l0,0c-1.9,0-3.1,1.2-3.1,3.1c0,2.3,1.2,3.1,3.1,3.1l0,0c-2.3,0-3.1,1.2-3.1,3.1c0,2.3,1.2,3.1,3.1,3.1v0.4
		c-2.3,0-3.1,1.2-3.1,3.1c0,2.3,1.2,3.1,3.1,3.1v0.4c-2.3,0-3.1,1.2-3.1,3.1c0,1.9,1.2,3.1,3.1,3.1v0.4c-2.3,0-3.1,1.2-3.1,3.1
		c0,2.3,1.2,3.1,3.1,3.1v0.4c-2.3,0-3.1,1.2-3.1,3.1c0,2.3,1.2,3.1,3.1,3.1v0.4c-2.3,0-3.1,1.2-3.1,3.1c0,2.3,1.2,3.1,3.1,3.1v0.4
		c-2.3,0-3.1,1.2-3.1,3.1c0,2.3,1.2,3.1,3.1,3.1v0.8c-2.3,0-3.1,1.2-3.1,3.1c0,2.3,1.2,3.1,3.1,3.1v0.4c-2.3,0-3.1,1.2-3.1,3.1
		c0,2.3,1.2,3.1,3.1,3.1c1.9,0,3.1-1.2,3.1-3.1h0.4c0,2.3,1.2,3.1,3.1,3.1c2.3,0,3.1-1.2,3.1-3.1h0.4c0,2.3,1.2,3.1,3.1,3.1
		c2.3,0,3.1-1.2,3.1-3.1C600.6,351.9,599.9,350.8,597.5,350.8"/>
	<path class="st0" d="M591,297.8L591,297.8c2.3,0,3.1-1.2,3.1-3.1c0-2.3-1.2-3.1-3.1-3.1s-3.1,1.2-3.1,3.1l0,0
		C587.9,296.7,589,297.8,591,297.8 M591,304.4c2.3,0,3.1-1.2,3.1-3.1c0-2.3-1.2-3.1-3.1-3.1l0,0c-1.9,0-3.1,1.2-3.1,3.1
		C587.9,303.2,589,304.4,591,304.4 M591,337.2c2.3,0,3.1-1.2,3.1-3.1c0-1.9-1.2-3.1-3.1-3.1c-2.3,0-3.1,1.2-3.1,3.1l0,0
		C587.9,336.5,589,337.2,591,337.2 M591,337.6c-2.3,0-3.1,1.2-3.1,3.1l0,0c0,2.3,1.2,3.1,3.1,3.1l0,0l0,0c2.3,0,3.1-1.2,3.1-3.1
		C594.1,338.8,593.3,337.6,591,337.6 M591,350.8L591,350.8c2.3,0,3.1-1.2,3.1-3.1c0-1.9-1.2-3.1-3.1-3.1l0,0c-1.9,0-3.1,1.2-3.1,3.1
		l0,0C587.9,349.6,589,350.8,591,350.8 M587.9,327.6c0,2.3,1.2,3.1,3.1,3.1c2.3,0,3.1-1.2,3.1-3.1c0-2.3-1.2-3.1-3.1-3.1
		S587.9,325.6,587.9,327.6L587.9,327.6z M587.9,321c0,2.3,1.2,3.1,3.1,3.1c2.3,0,3.1-1.2,3.1-3.1c0-2.3-1.2-3.1-3.1-3.1
		S587.9,318.7,587.9,321L587.9,321z M594.1,314.4c0-2.3-1.2-3.1-3.1-3.1c-2.3,0-3.1,1.2-3.1,3.1l0,0c0,2.3,1.2,3.1,3.1,3.1
		C593.3,317.5,594.1,316.4,594.1,314.4L594.1,314.4z M587.9,307.9c0,2.3,1.2,3.1,3.1,3.1c2.3,0,3.1-1.2,3.1-3.1
		c0-2.3-1.2-3.1-3.1-3.1S587.9,305.5,587.9,307.9z M597.5,344.2L597.5,344.2c-2.3,0-3.1,1.2-3.1,3.1c0,2.3,1.2,3.1,3.1,3.1l0,0
		c2.3,0,3.1-1.2,3.1-3.1C600.6,345.3,599.9,344.2,597.5,344.2 M597.5,337.6L597.5,337.6c-2.3,0-3.1,1.2-3.1,3.1
		c0,2.3,1.2,3.1,3.1,3.1l0,0c2.3,0,3.1-1.2,3.1-3.1C600.6,338.8,599.9,337.6,597.5,337.6 M597.5,331L597.5,331
		c-2.3,0-3.1,1.2-3.1,3.1c0,1.9,1.2,3.1,3.1,3.1l0,0c2.3,0,3.1-1.2,3.1-3.1C600.6,332.2,599.9,331,597.5,331 M597.5,324.5
		L597.5,324.5c-2.3,0-3.1,1.2-3.1,3.1c0,1.9,1.2,3.1,3.1,3.1l0,0c2.3,0,3.1-1.2,3.1-3.1C600.6,325.6,599.9,324.5,597.5,324.5
		 M597.5,317.9L597.5,317.9c-2.3,0-3.1,1.2-3.1,3.1c0,1.9,1.2,3.1,3.1,3.1l0,0c2.3,0,3.1-1.2,3.1-3.1
		C600.6,318.7,599.9,317.9,597.5,317.9 M597.5,311.3c-2.3,0-3.1,1.2-3.1,3.1l0,0c0,2.3,1.2,3.1,3.1,3.1l0,0c2.3,0,3.1-1.2,3.1-3.1
		C600.6,312.1,599.9,311.3,597.5,311.3 M597.5,311c2.3,0,3.1-1.2,3.1-3.1c0-1.9-1.2-3.1-3.1-3.1c-2.3,0-3.1,1.2-3.1,3.1
		C594.4,309.8,595.6,311,597.5,311 M597.5,297.8c-2.3,0-3.1,1.2-3.1,3.1c0,2.3,1.2,3.1,3.1,3.1c2.3,0,3.1-1.2,3.1-3.1
		C600.6,299,599.9,297.8,597.5,297.8 M600.6,294.7c0-2.3-1.2-3.1-3.1-3.1c-2.3,0-3.1,1.2-3.1,3.1l0,0c0,2.3,1.2,3.1,3.1,3.1
		S600.6,296.7,600.6,294.7L600.6,294.7z M604.1,291.2c-2.3,0-3.1,1.2-3.1,3.1l0,0c0,1.9,1.2,3.1,3.1,3.1c2.3,0,3.1-1.2,3.1-3.1l0,0
		C607.2,292.4,606.4,291.2,604.1,291.2"/>
	<path class="st0" d="M610.7,291.2L610.7,291.2c2.3-0.4,3.1-1.2,3.1-3.5s-1.2-3.1-3.1-3.1c-2.3,0-3.1,1.2-3.1,3.1h-0.4
		c0-2.3-1.2-3.1-3.1-3.1c-2.3,0-3.1,1.2-3.1,3.1h-0.4c0-2.3-1.2-3.1-3.1-3.1c-2.3,0-3.1,1.2-3.1,3.1h-0.4c0-2.3-1.2-3.1-3.1-3.1
		c-2.3,0-3.1,1.2-3.1,3.1h-0.4c0-2.3-1.2-3.1-3.1-3.1c-2.3,0-3.1,1.2-3.1,3.1h-0.4c0-2.3-1.2-3.1-3.1-3.1c-2.3,0-3.1,1.2-3.1,3.1
		h-0.4c0-2.3-1.2-3.1-3.1-3.1c-2.3,0-3.1,1.2-3.1,3.1c0,2.3,1.2,3.1,3.1,3.1v0.4c-2.3,0-3.1,1.2-3.1,3.1c0,2.3,1.2,3.1,3.1,3.1
		s3.1-1.2,3.1-3.1l0,0c0-2.3-1.2-3.1-3.1-3.1l0,0c2.3,0,3.1-1.2,3.1-3.1h0.4c0,2.3,1.2,3.1,3.1,3.1c1.9,0,3.1-1.2,3.1-3.1h0.4
		c0,2.3,1.2,3.1,3.1,3.1c2.3,0,3.1-1.2,3.1-3.1h0.4c0,2.3,1.2,3.1,3.1,3.1c2.3,0,3.1-1.2,3.1-3.1h0.4c0,2.3,1.2,3.1,3.1,3.1
		s3.1-1.2,3.1-3.1h0.4c0,2.3,1.2,3.1,3.1,3.1c2.3,0,3.1-1.2,3.1-3.1h0.4C607.6,290.1,608.7,291.2,610.7,291.2L610.7,291.2
		c-2.3,0-3.1,1.2-3.1,3.1c0,2.3,1.2,3.1,3.1,3.1c2.3,0,3.1-1.2,3.1-3.1C613.8,292.4,613,291.2,610.7,291.2"/>
</g>
</svg>
